<?xml version="1.0" encoding="UTF-8" standalone="no"?>
<svg width="19px" height="20px" viewBox="0 0 19 20" version="1.1" xmlns="http://www.w3.org/2000/svg" xmlns:xlink="http://www.w3.org/1999/xlink">
    <!-- Generator: Sketch 48.1 (47250) - http://www.bohemiancoding.com/sketch -->
    <title>Music Copy</title>
    <desc>Created with Sketch.</desc>
    <defs>
        <linearGradient x1="100%" y1="0%" x2="0%" y2="100%" id="linearGradient-1">
            <stop stop-color="#3F80BE" offset="0%"></stop>
            <stop stop-color="#1988A1" offset="100%"></stop>
        </linearGradient>
    </defs>
    <g id="UI-Style-Guides" stroke="none" stroke-width="1" fill="none" fill-rule="evenodd">
        <g id="Music-Copy" fill="url(#linearGradient-1)" fill-rule="nonzero">
            <g id="Group-Copy">
                <g id="Group">
                    <path d="M16.25,8.33333333 L16.25,9.16666667 C16.9391667,9.16666667 17.5,9.7275 17.5,10.4166667 L17.5,17.9166667 C17.5,18.6058333 16.9391667,19.1666667 16.25,19.1666667 C15.5608333,19.1666667 15,18.6058333 15,17.9166667 L15,2.08333333 C15,0.934583333 14.0654167,0 12.9166667,0 L2.08333333,0 C0.934583333,0 0,0.934583333 0,2.08333333 L0,17.9166667 C0,19.0654167 0.934583333,20 2.08333333,20 L16.25,20 C17.39875,20 18.3333333,19.0654167 18.3333333,17.9166667 L18.3333333,10.4166667 C18.3333333,9.26791667 17.39875,8.33333333 16.25,8.33333333 Z M0.833333333,17.9166667 L0.833333333,2.08333333 C0.833333333,1.39416667 1.39416667,0.833333333 2.08333333,0.833333333 L12.9166667,0.833333333 C13.6058333,0.833333333 14.1666667,1.39416667 14.1666667,2.08333333 L14.1666667,17.9166667 C14.1666667,18.3875 14.3295833,18.8175 14.5941667,19.1666667 L2.08333333,19.1666667 C1.39416667,19.1666667 0.833333333,18.6058333 0.833333333,17.9166667 Z" id="Shape"></path>
                    <rect id="Rectangle-path" x="3.33333333" y="12.5" width="1" height="4.16666667"></rect>
                    <rect id="Rectangle-path" x="5.83333333" y="8.33333333" width="1" height="8.33333333"></rect>
                    <rect id="Rectangle-path" x="8.33333333" y="12.5" width="1" height="4.16666667"></rect>
                    <rect id="Rectangle-path" x="10.8333333" y="8.33333333" width="1" height="8.33333333"></rect>
                </g>
                <polygon id="Shape" points="11.6666667 6.66666667 11.6666667 3.33333333 8.33333333 3.33333333"></polygon>
            </g>
        </g>
    </g>
</svg>