<?xml version="1.0" encoding="UTF-8" standalone="no"?>
<svg width="20px" height="22px" viewBox="0 0 20 22" version="1.1" xmlns="http://www.w3.org/2000/svg" xmlns:xlink="http://www.w3.org/1999/xlink">
    <!-- Generator: Sketch 48.1 (47250) - http://www.bohemiancoding.com/sketch -->
    <title>Home Copy</title>
    <desc>Created with Sketch.</desc>
    <defs>
        <linearGradient x1="100%" y1="0%" x2="0%" y2="100%" id="linearGradient-1">
            <stop stop-color="#3F80BE" offset="0%"></stop>
            <stop stop-color="#1988A1" offset="100%"></stop>
        </linearGradient>
    </defs>
    <g id="UI-Style-Guides" stroke="none" stroke-width="1" fill="none" fill-rule="evenodd">
        <g id="Home-Copy">
            <g id="icon-home">
                <path d="M6,21 L6,11.5 C6,11.225 6.199,11 6.444,11 L13.556,11 C13.801,11 14,11.225 14,11.5 L14,21 L6,21 Z" id="Fill" fill-opacity="0.2" fill="#06B4FE"></path>
                <path d="M19,21 L15,21 L15,11.091 C15,10.488 14.552,10 14,10 L6,10 C5.448,10 5,10.488 5,11.091 L5,21 L1,21 L1,6.449 L10,1.008 L19,6.449 L19,21 Z M6,21 L14,21 L14,11 L6,11 L6,21 Z M19.515,5.585 L10.515,0.144 C10.356,0.048 10.178,0 10,0 C9.822,0 9.644,0.048 9.486,0.144 L0.486,5.585 C0.184,5.767 0,6.095 0,6.449 L0,20.992 C0,21.549 0.448,22 1,22 L5,22 L15,22 L19,22 C19.552,22 20,21.549 20,20.992 L20,6.449 C20,6.095 19.816,5.767 19.515,5.585 L19.515,5.585 Z" id="Outline" fill="url(#linearGradient-1)"></path>
            </g>
        </g>
    </g>
</svg>