<?xml version="1.0" encoding="UTF-8" standalone="no"?>
<svg width="21px" height="23px" viewBox="0 0 21 23" version="1.1" xmlns="http://www.w3.org/2000/svg" xmlns:xlink="http://www.w3.org/1999/xlink">
    <!-- Generator: Sketch 48.1 (47250) - http://www.bohemiancoding.com/sketch -->
    <title>Usuarios</title>
    <desc>Created with Sketch.</desc>
    <defs>
        <linearGradient x1="100%" y1="0%" x2="0%" y2="100%" id="linearGradient-1">
            <stop stop-color="#3F80BE" offset="0%"></stop>
            <stop stop-color="#1988A1" offset="100%"></stop>
        </linearGradient>
    </defs>
    <g id="UI-Style-Guides" stroke="none" stroke-width="1" fill="none" fill-rule="evenodd">
        <g id="Usuarios" transform="translate(1.000000, 1.000000)">
            <g id="Group-8">
                <path d="M17.6415094,18.6377358 C17.6415094,14.445283 17.0603774,10.9584906 11.4981132,10.1698113 C10.8754717,11 10.0037736,11.3735849 9.00754717,11.3735849 C8.01132075,11.3735849 7.13962264,11 6.51698113,10.1698113 C0.954716981,10.9169811 0.373584906,14.4037736 0.373584906,18.6377358" id="Shape" stroke="url(#linearGradient-1)" fill="#FFFFFF" fill-rule="nonzero" stroke-linecap="round" stroke-linejoin="round"></path>
                <g id="Group" transform="translate(5.396226, 0.000000)">
                    <path d="M7.05660377,4.44150943 C7.05660377,6.8490566 5.35471698,8.9245283 3.65283019,8.9245283 C1.9509434,8.9245283 0.373584906,6.80754717 0.249056604,4.44150943 C0.124528302,2.03396226 1.53584906,0.124528302 3.65283019,0.124528302 C5.72830189,0.0830188679 7.05660377,2.03396226 7.05660377,4.44150943 Z" id="Shape" fill="#FFFFFF" fill-rule="nonzero"></path>
                    <path d="M7.05660377,4.44150943 C7.05660377,6.8490566 5.35471698,8.9245283 3.65283019,8.9245283 C1.9509434,8.9245283 0.373584906,6.80754717 0.249056604,4.44150943 C0.124528302,2.03396226 1.53584906,0.124528302 3.65283019,0.124528302 C5.72830189,0.0830188679 7.05660377,2.03396226 7.05660377,4.44150943 Z" id="Shape" stroke="url(#linearGradient-1)" stroke-linecap="round" stroke-linejoin="round"></path>
                </g>
                <path d="M3.65283019,14.5698113 C3.07169811,16.1056604 3.07169811,18.4301887 3.07169811,20.0075472 C4.60754717,20.6301887 6.7245283,21.1698113 9.00754717,21.1698113 C11.3320755,21.1698113 13.4075472,20.6301887 14.9433962,20.0075472 C14.9433962,18.554717 14.9433962,16.4792453 14.5283019,15.0264151" id="Shape" stroke="url(#linearGradient-1)" fill="#FFFFFF" fill-rule="nonzero" stroke-linecap="round" stroke-linejoin="round"></path>
                <path d="M0.41509434,18.6377358 C0.41509434,18.9283019 1.66037736,19.6339623 3.07169811,19.6339623" id="Shape" stroke="url(#linearGradient-1)" fill="#FFFFFF" fill-rule="nonzero" stroke-linecap="round" stroke-linejoin="round"></path>
                <path d="M17.6415094,18.6377358 C17.6415094,18.9283019 16.3962264,19.6339623 14.9849057,19.6339623" id="Shape" stroke="url(#linearGradient-1)" stroke-width="1.5" fill="#FFFFFF" fill-rule="nonzero" stroke-linecap="round" stroke-linejoin="round"></path>
                <path d="M18.7,14 L13.3,14 C13.15,14 13,14.15 13,14.3 L13,20.75 C13,20.9 13.15,21.05 13.3,21.05 L17.6875,21.05 L18.7,21.05 C18.85,21.05 19,20.9 19,20.75 L19,19.7375 L19,14.3 C19,14.15 18.85,14 18.7,14 Z" id="Shape" stroke="url(#linearGradient-1)" fill="#FFFFFF" fill-rule="nonzero" stroke-linecap="round" stroke-linejoin="round"></path>
                <polyline id="Shape-Copy-2" stroke="url(#linearGradient-1)" stroke-width="0.5" fill="#FFFFFF" fill-rule="nonzero" stroke-linecap="round" stroke-linejoin="round" points="16.953125 17 15.6640625 18.2890625 15 17.625"></polyline>
            </g>
        </g>
    </g>
</svg>