<?xml version="1.0" encoding="UTF-8" standalone="no"?>
<svg width="21px" height="15px" viewBox="0 0 21 15" version="1.1" xmlns="http://www.w3.org/2000/svg" xmlns:xlink="http://www.w3.org/1999/xlink">
    <!-- Generator: Sketch 47.1 (45422) - http://www.bohemiancoding.com/sketch -->
    <title>icon-menu</title>
    <desc>Created with Sketch.</desc>
    <defs>
        <linearGradient x1="100%" y1="0%" x2="0%" y2="100%" id="linearGradient-1">
            <stop stop-color="#3F80BE" offset="0%"></stop>
            <stop stop-color="#1988A1" offset="100%"></stop>
        </linearGradient>
    </defs>
    <g id="Admin" stroke="none" stroke-width="1" fill="none" fill-rule="evenodd">
        <g id="Admin-Profile-Settings" transform="translate(-40.000000, -826.000000)" stroke="url(#linearGradient-1)" stroke-width="0.5" fill="#3F80BE">
            <g id="Menu-Copy" transform="translate(10.000000, 793.000000)">
                <g id="icon-menu" transform="translate(31.000000, 34.000000)">
                    <path d="M0.5,1 C0.224,1 0,0.776 0,0.5 C0,0.224 0.224,0 0.5,0 L18.5,0 C18.776,0 19,0.224 19,0.5 C19,0.776 18.776,1 18.5,1 L0.5,1 Z M18.5,6 C18.776,6 19,6.224 19,6.5 C19,6.776 18.776,7 18.5,7 L0.5,7 C0.224,7 0,6.776 0,6.5 C0,6.224 0.224,6 0.5,6 L18.5,6 Z M18.5,12 C18.776,12 19,12.224 19,12.5 C19,12.776 18.776,13 18.5,13 L0.5,13 C0.224,13 0,12.776 0,12.5 C0,12.224 0.224,12 0.5,12 L18.5,12 Z" id="Outline"></path>
                </g>
            </g>
        </g>
    </g>
</svg>