<?xml version="1.0" encoding="UTF-8" standalone="no"?>
<svg width="20px" height="19px" viewBox="0 0 20 19" version="1.1" xmlns="http://www.w3.org/2000/svg" xmlns:xlink="http://www.w3.org/1999/xlink">
    <!-- Generator: Sketch 48.1 (47250) - http://www.bohemiancoding.com/sketch -->
    <title>Email Copy 2</title>
    <desc>Created with Sketch.</desc>
    <defs>
        <linearGradient x1="83.8831958%" y1="0%" x2="0%" y2="100%" id="linearGradient-1">
            <stop stop-color="#3F80BE" offset="0%"></stop>
            <stop stop-color="#1988A1" offset="100%"></stop>
        </linearGradient>
    </defs>
    <g id="UI-Style-Guides" stroke="none" stroke-width="1" fill="none" fill-rule="evenodd">
        <g id="Email-Copy-2" fill="url(#linearGradient-1)" fill-rule="nonzero">
            <g id="Icon">
                <path d="M15.2605038,0 C13.9151491,0 12.8222951,1.09349678 12.8222951,2.43964263 C12.8222951,3.78578849 13.9151491,4.87928527 15.2605038,4.87928527 C16.6058584,4.87928527 17.6987125,3.78578849 17.6987125,2.43964263 C17.6987125,1.09349678 16.6058584,0 15.2605038,0 Z M15.2605038,3.91211303 C14.4477675,3.91211303 13.7888988,3.25285685 13.7888988,2.43964263 C13.7888988,1.62642842 14.4477675,0.967172242 15.2605038,0.967172242 C16.07324,0.967172242 16.7321087,1.62642842 16.7321087,2.43964263 C16.7321087,3.25285685 16.07324,3.91211303 15.2605038,3.91211303 Z M9.65814717,4.87928527 C8.31279252,4.87928527 7.21993845,3.78578849 7.21993845,2.43964263 C7.21993845,1.09349678 8.31279252,0 9.65814717,0 C11.0035018,0 12.0963559,1.09349678 12.0963559,2.43964263 C12.0963559,3.78578849 11.0035018,4.87928527 9.65814717,4.87928527 Z M9.65814717,0.967172242 C8.84541093,0.967172242 8.18654223,1.63037606 8.18654223,2.43964263 C8.18654223,3.25285685 8.84541093,3.91211303 9.65814717,3.91211303 C10.4708834,3.91211303 11.1297521,3.25285685 11.1297521,2.43964263 C11.1297521,1.62642842 10.4708834,0.967172242 9.65814717,0.967172242 Z M16.8978122,5.37274049 C18.2313309,5.37274049 19.3162943,6.45439435 19.3162943,7.78869728 L19.3162943,10.8797008 C19.3162943,11.7718679 18.8191838,12.5890297 18.0459008,13.0074797 L18.0459008,17.0735508 C18.0459008,18.1354664 17.1818754,19 16.1205839,19 L13.9269851,19 C13.6587032,19 13.4417105,18.7828797 13.4417105,18.5144401 C13.4417105,18.2460004 13.6587032,18.0288801 13.9269851,18.0288801 L16.1205839,18.0288801 C16.649257,18.0288801 17.079297,17.5985872 17.079297,17.0696032 L17.079297,12.7035113 C17.079297,12.5021816 17.2055473,12.3205901 17.3949227,12.2495325 C17.9669944,12.0403075 18.3496906,11.4915853 18.3496906,10.8875961 L18.3496906,7.79659256 C18.3496906,6.99522128 17.6987125,6.34386038 16.8978122,6.34386038 L14.8225731,6.34386038 C14.5542912,6.34386038 14.3372985,6.12674008 14.3372985,5.85830044 C14.3372985,5.58986079 14.5542912,5.37274049 14.8225731,5.37274049 L16.8978122,5.37274049 Z M8.56134778,18.9881571 C7.50005628,18.9881571 6.63603086,18.1236235 6.63208554,17.0617079 L6.63208554,13.0074797 C5.85880251,12.5890297 5.361692,11.7718679 5.361692,10.8797008 L5.361692,7.78869728 C5.361692,6.45439435 6.44665542,5.36879285 7.78017411,5.36879285 L11.5321749,5.36879285 C12.8656936,5.36879285 13.950657,6.45439435 13.950657,7.78869728 L13.950657,10.8797008 C13.950657,11.7718679 13.4535465,12.5890297 12.6802635,13.0074797 L12.6802635,17.0617079 C12.6802635,18.1236235 11.8162381,18.9881571 10.7549466,18.9881571 L8.56134778,18.9881571 Z M6.3322411,10.8797008 C6.3322411,11.48369 6.71493729,12.0324122 7.29489956,12.2416372 C7.48427499,12.3126948 7.61052528,12.4942863 7.61052528,12.695616 L7.61052528,17.0617079 C7.61052528,17.5906919 8.04056533,18.0209848 8.56923842,18.0209848 L10.7628372,18.0209848 C11.2915103,18.0209848 11.7215503,17.5906919 11.7215503,17.0617079 L11.7215503,12.695616 C11.7215503,12.4942863 11.8478006,12.3126948 12.0371761,12.2416372 C12.6053024,12.0324122 12.9879986,11.48369 12.9879986,10.8797008 L12.9879986,7.78869728 C12.9879986,6.98732599 12.3370205,6.33596509 11.5361202,6.33596509 L7.78411943,6.33596509 C6.98321916,6.33596509 6.3322411,6.98732599 6.3322411,7.78869728 L6.3322411,10.8797008 Z M6.49399928,2.43964263 C6.49399928,3.78578849 5.39719989,4.87928527 4.05579056,4.87928527 C2.71043591,4.87928527 1.61758184,3.78578849 1.61758184,2.43964263 C1.61758184,1.09349678 2.71043591,0 4.05579056,0 C5.40114521,0 6.49399928,1.09349678 6.49399928,2.43964263 Z M2.58418562,2.43964263 C2.58418562,3.25285685 3.24305432,3.91211303 4.05579056,3.91211303 C4.8685268,3.91211303 5.5273955,3.25285685 5.5273955,2.43964263 C5.5273955,1.62642842 4.8685268,0.967172242 4.05579056,0.967172242 C3.24305432,0.967172242 2.58418562,1.63037606 2.58418562,2.43964263 Z M3.19571046,18.9881571 C2.13441896,18.9881571 1.27039354,18.1236235 1.27039354,17.0577602 L1.27039354,13.0035321 C0.497110516,12.5850821 0,11.7679202 0,10.8757532 L0,7.78474964 C0,6.45044671 1.08496343,5.36484521 2.41848211,5.36484521 L4.48977593,5.36484521 C4.7580578,5.36484521 4.97505048,5.58196551 4.97505048,5.85040515 C4.97505048,6.1188448 4.7580578,6.33596509 4.48977593,6.33596509 L2.42242744,6.33596509 C1.62152716,6.33596509 0.970549103,6.98732599 0.970549103,7.78869728 L0.970549103,10.8797008 C0.970549103,11.4876376 1.35324529,12.0324122 1.9213716,12.2416372 C2.11074703,12.3126948 2.23699732,12.4942863 2.23699732,12.695616 L2.23699732,17.0577602 C2.23699732,17.5867442 2.66703737,18.0170372 3.19571046,18.0170372 L5.38930925,18.0170372 C5.65759111,18.0170372 5.8745838,18.2341575 5.8745838,18.5025971 C5.8745838,18.7710368 5.65759111,18.9881571 5.38930925,18.9881571 L3.19571046,18.9881571 Z" id="stick-man-2"></path>
            </g>
        </g>
    </g>
</svg>