<?xml version="1.0" encoding="UTF-8" standalone="no"?>
<svg width="5px" height="25px" viewBox="0 0 5 25" version="1.1" xmlns="http://www.w3.org/2000/svg" xmlns:xlink="http://www.w3.org/1999/xlink">
    <!-- Generator: Sketch 47.1 (45422) - http://www.bohemiancoding.com/sketch -->
    <title>icon-attention</title>
    <desc>Created with Sketch.</desc>
    <defs></defs>
    <g id="UI-Style-Guides" stroke="none" stroke-width="1" fill="none" fill-rule="evenodd">
        <g transform="translate(-329.000000, -5948.000000)" id="icon-attention" fill="#D72B3F">
            <g transform="translate(329.000000, 5948.000000)">
                <g id="group">
                    <path d="M2.03619048,16.4304305 C2.58819048,16.4304305 3.03619048,15.9824305 3.03619048,15.4304305 L3.03619048,1.43043048 C3.03619048,0.878430476 2.58819048,0.430430476 2.03619048,0.430430476 C1.48419048,0.430430476 1.03619048,0.878430476 1.03619048,1.43043048 L1.03619048,15.4304305 C1.03619048,15.9824305 1.48419048,16.4304305 2.03619048,16.4304305" id="shape"></path>
                    <path d="M2.07405916,20.7085486 L2.07405916,20.7085486 L2.03806516,20.7085486 C0.934249241,20.7265576 0.052396302,21.6390138 0.0723929673,22.7415651 C0.0923896325,23.8361124 0.982241237,24.7085486 2.07205949,24.7085486 L2.10805349,24.7085486 C3.20986975,24.6885386 4.09172269,23.7780833 4.07172602,22.6735311 C4.05372902,21.5809848 3.16187775,20.7085486 2.07405916,20.7085486" id="shape"></path>
                </g>
            </g>
        </g>
    </g>
</svg>