<?xml version="1.0" encoding="UTF-8" standalone="no"?>
<svg width="16px" height="16px" viewBox="0 0 16 16" version="1.1" xmlns="http://www.w3.org/2000/svg" xmlns:xlink="http://www.w3.org/1999/xlink">
    <!-- Generator: Sketch 48.1 (47250) - http://www.bohemiancoding.com/sketch -->
    <title>icon-close_window</title>
    <desc>Created with Sketch.</desc>
    <defs></defs>
    <g id="Clientes-Tablet---Colaboradores-Eliminar" stroke="none" stroke-width="1" fill="none" fill-rule="evenodd" transform="translate(-679.000000, -159.000000)">
        <g id="Confirmación" transform="translate(297.000000, 127.000000)">
            <g id="icon-close_window" transform="translate(350.000000, 0.000000)">
                <g>
                    <rect id="Align" fill-opacity="0" fill="#FF4743" x="0" y="0" width="80" height="80"></rect>
                    <path d="M40.72125,40.00025 L46.85125,33.87025 C47.05025,33.67125 47.05025,33.34825 46.85125,33.14925 C46.65125,32.95025 46.32925,32.95025 46.12925,33.14925 L40.00025,39.27925 L33.87025,33.14925 C33.67125,32.95025 33.34825,32.95025 33.14925,33.14925 C32.95025,33.34825 32.95025,33.67125 33.14925,33.87025 L39.27925,40.00025 L33.14925,46.12925 C32.95025,46.32925 32.95025,46.65125 33.14925,46.85125 C33.34825,47.05025 33.67125,47.05025 33.87025,46.85125 L40.00025,40.72125 L46.12925,46.85125 C46.32925,47.05025 46.65125,47.05025 46.85125,46.85125 C47.05025,46.65125 47.05025,46.32925 46.85125,46.12925 L40.72125,40.00025 Z" stroke="#9B9B9B" stroke-width="0.5" fill="#9B9B9B"></path>
                </g>
            </g>
        </g>
    </g>
</svg>