<?xml version="1.0" encoding="UTF-8" standalone="no"?>
<svg width="83px" height="53px" viewBox="0 0 83 53" version="1.1" xmlns="http://www.w3.org/2000/svg" xmlns:xlink="http://www.w3.org/1999/xlink">
    <!-- Generator: sketchtool 47.1 (45422) - http://www.bohemiancoding.com/sketch -->
    <title>718D9B71-97ED-437E-BC17-E81D6D4FEAEE</title>
    <desc>Created with sketchtool.</desc>
    <defs>
        <filter x="-9.3%" y="-11.1%" width="118.7%" height="131.1%" filterUnits="objectBoundingBox" id="filter-1">
            <feOffset dx="0" dy="2" in="SourceAlpha" result="shadowOffsetOuter1"></feOffset>
            <feGaussianBlur stdDeviation="2" in="shadowOffsetOuter1" result="shadowBlurOuter1"></feGaussianBlur>
            <feColorMatrix values="0 0 0 0 0   0 0 0 0 0   0 0 0 0 0  0 0 0 0.1 0" type="matrix" in="shadowBlurOuter1" result="shadowMatrixOuter1"></feColorMatrix>
            <feMerge>
                <feMergeNode in="shadowMatrixOuter1"></feMergeNode>
                <feMergeNode in="SourceGraphic"></feMergeNode>
            </feMerge>
        </filter>
    </defs>
    <g id="Admin" stroke="none" stroke-width="1" fill="none" fill-rule="evenodd">
        <g id="Cliente-Agregar-Edificio-A" transform="translate(-467.000000, -2334.000000)">
            <g id="Datos-de-Tarjeta" transform="translate(135.000000, 2217.000000)">
                <g id="icon-AmericanExpress" filter="url(#filter-1)" transform="translate(336.000000, 119.000000)">
                    <rect id="Rectangle" fill="#FFFFFF" x="0" y="0" width="75" height="45" rx="4"></rect>
                    <path d="M63.305521,25.9991873 L60.6557403,25.9991873 C60.3911842,25.9991873 60.215425,26.0090646 60.067369,26.1087521 C59.9139925,26.2069764 59.8549169,26.352758 59.8549169,26.5451824 C59.8549169,26.7740065 59.9844429,26.9296654 60.1728612,26.9969773 C60.3262377,27.050205 60.490989,27.0657526 60.7331624,27.0657526 L61.5211433,27.0867876 C62.3162793,27.1063593 62.8470427,27.2426294 63.1706744,27.5749822 C63.2295666,27.6212591 63.2649753,27.6732064 63.305521,27.7251537 L63.305521,25.9991873 Z M63.305521,29.9982126 C62.9523514,30.5131125 62.2641753,30.7741293 61.3325416,30.7741293 L58.5247978,30.7741293 L58.5247978,29.4734355 L61.3211668,29.4734355 C61.5985654,29.4734355 61.792671,29.4370358 61.909538,29.3232639 C62.0108106,29.2294296 62.0814445,29.0931595 62.0814445,28.9276233 C62.0814445,28.7509294 62.0108106,28.6106352 61.9038506,28.5264952 C61.7983584,28.4339413 61.6447985,28.3918713 61.3916172,28.3918713 C60.0264564,28.3455943 58.3233535,28.4339413 58.3233535,26.514453 C58.3233535,25.6346418 58.8836547,24.7085537 60.4093472,24.7085537 L63.3053375,24.7085537 L63.3053375,23.5016942 L60.6146442,23.5016942 C59.8026294,23.5016942 59.2127904,23.6955819 58.7950413,23.9970224 L58.7950413,23.5016942 L54.8151415,23.5016942 C54.1787025,23.5016942 53.4316342,23.6589993 53.0782812,23.9970224 L53.0782812,23.5016942 L45.9712256,23.5016942 L45.9712256,23.9970224 C45.4056039,23.5902241 44.4512206,23.5016942 44.0107218,23.5016942 L39.3228318,23.5016942 L39.3228318,23.9970224 C38.8753614,23.5649821 37.8802488,23.5016942 37.2737145,23.5016942 L32.0271745,23.5016942 L30.8265815,24.7970835 L29.7021263,23.5016942 L21.8648812,23.5016942 L21.8648812,31.9654412 L29.5546207,31.9654412 L30.7917232,30.6495656 L31.957091,31.9654412 L36.697085,31.9696482 L36.697085,29.978641 L37.1630853,29.978641 C37.7920023,29.9883353 38.5337501,29.9630934 39.1881687,29.6810416 L39.1881687,31.9652583 L43.0978015,31.9652583 L43.0978015,29.7593284 L43.2864032,29.7593284 C43.5271089,29.7593284 43.5507758,29.7692057 43.5507758,30.0090045 L43.5507758,31.9650754 L55.4275467,31.9650754 C56.1815866,31.9650754 56.969751,31.772651 57.4062135,31.4234702 L57.4062135,31.9650754 L61.1734777,31.9650754 C61.9574223,31.9650754 62.7230205,31.8555105 63.305521,31.5749221 L63.305521,29.9982126 L63.305521,29.9982126 Z M57.5060183,27.5749822 C57.7891043,27.8670941 57.9408296,28.2358466 57.9408296,28.8601284 C57.9408296,30.1650292 57.1231275,30.7741293 55.6568776,30.7741293 L52.8250999,30.7741293 L52.8250999,29.4734355 L55.6455028,29.4734355 C55.9212502,29.4734355 56.1168236,29.4370358 56.239378,29.3232639 C56.3393663,29.2294296 56.411101,29.0931595 56.411101,28.9276233 C56.411101,28.7509294 56.3334954,28.6106352 56.2336906,28.5264952 C56.122511,28.4339413 55.9691345,28.3918713 55.7159532,28.3918713 C54.3562963,28.3455943 52.6535604,28.4339413 52.6535604,26.514453 C52.6535604,25.6346418 53.2079907,24.7085537 54.7322155,24.7085537 L57.6469192,24.7085537 L57.6469192,25.9995531 L54.9798928,25.9995531 C54.7155202,25.9995531 54.5436138,26.0094304 54.3973924,26.109118 C54.238145,26.2073422 54.1790694,26.3531238 54.1790694,26.5455482 C54.1790694,26.7743723 54.3142829,26.9300312 54.4971972,26.9973432 C54.6505737,27.0505708 54.815325,27.0661184 55.0630023,27.0661184 L55.8456627,27.0871534 C56.6349279,27.1063593 57.1766992,27.2424465 57.5060183,27.5749822 L57.5060183,27.5749822 Z M44.3868244,27.2003765 C44.1923519,27.3154287 43.9518296,27.325306 43.6689271,27.325306 L41.9027124,27.325306 L41.9027124,25.9629705 L43.692961,25.9629705 C43.9518296,25.9629705 44.2108818,25.9684579 44.3868244,26.0725354 C44.5752427,26.1707596 44.68789,26.3586112 44.68789,26.6181647 C44.68789,26.8777181 44.5752427,27.0867876 44.3868244,27.2003765 L44.3868244,27.2003765 Z M45.2648865,27.9552582 C45.5885182,28.0743345 45.8530743,28.2877939 45.9770965,28.4644877 C46.1823935,28.7606238 46.2121148,29.0370052 46.2179856,29.5716597 L46.2179856,30.7741293 L44.7583405,30.7741293 L44.7583405,30.0152235 C44.7583405,29.6503123 44.7935657,29.1099875 44.5233222,28.8279357 C44.3108701,28.6106352 43.9870549,28.5586879 43.4566584,28.5586879 L41.9028959,28.5586879 L41.9028959,30.7741293 L40.4419664,30.7741293 L40.4419664,24.7083708 L43.7986366,24.7083708 C44.534697,24.7083708 45.0707809,24.7407464 45.5479725,24.9946295 C46.0068178,25.2710109 46.2954077,25.6496407 46.2954077,26.3416003 C46.2952243,27.3097584 45.6475939,27.8038062 45.2648865,27.9552582 L45.2648865,27.9552582 Z M47.1015516,24.7083708 L51.9540095,24.7083708 L51.9540095,25.9627876 L48.5494551,25.9627876 L48.5494551,27.0655697 L51.8709,27.0655697 L51.8709,28.3031585 L48.5494551,28.3031585 L48.5494551,29.510018 L51.9540095,29.5155054 L51.9540095,30.7741293 L47.1015516,30.7741293 L47.1015516,24.7083708 L47.1015516,24.7083708 Z M37.2922445,27.5076702 L35.4133825,27.5076702 L35.4133825,25.9629705 L37.3091232,25.9629705 C37.8340157,25.9629705 38.1983766,26.176247 38.1983766,26.7066945 C38.1983766,27.2312888 37.8508945,27.5076702 37.2922445,27.5076702 L37.2922445,27.5076702 Z M33.9652956,30.2224639 L31.7330806,27.7516761 L33.9652956,25.3593579 L33.9652956,30.2224639 L33.9652956,30.2224639 Z M28.2006512,29.510018 L24.626025,29.510018 L24.626025,28.3031585 L27.8179438,28.3031585 L27.8179438,27.0655697 L24.626025,27.0655697 L24.626025,25.9627876 L28.2711016,25.9627876 L29.8613737,27.7304582 L28.2006512,29.510018 L28.2006512,29.510018 Z M39.7592943,26.7066945 C39.7592943,28.3916884 38.4983414,28.7395888 37.2274814,28.7395888 L35.4133825,28.7395888 L35.4133825,30.7741293 L32.5874757,30.7741293 L30.7972271,28.7661112 L28.9367116,30.7741293 L23.1777546,30.7741293 L23.1777546,24.7083708 L29.025325,24.7083708 L30.8141059,26.6966343 L32.6634301,24.7083708 L37.3091232,24.7083708 C38.4629327,24.7083708 39.7592943,25.0268222 39.7592943,26.7066945 L39.7592943,26.7066945 Z" id="EXPRESS" fill="#0072CE"></path>
                    <path d="M16.2411377,17.7181703 L15.2460252,15.3006102 L14.2566001,17.7181703 L16.2411377,17.7181703 Z M38.1633349,16.7554996 C37.9635418,16.876405 37.7272393,16.8804291 37.4441532,16.8804291 L35.6779386,16.8804291 L35.6779386,15.5334583 L37.4681871,15.5334583 C37.7215519,15.5334583 37.9859245,15.5447989 38.1576475,15.6428403 C38.3462492,15.7311872 38.4629327,15.9192217 38.4629327,16.1789581 C38.4629327,16.4439989 38.3519366,16.6572754 38.1633349,16.7554996 L38.1633349,16.7554996 Z M50.7633236,17.7181703 L49.7572032,15.3006102 L48.7565867,17.7181703 L50.7633236,17.7181703 L50.7633236,17.7181703 Z M27.2761726,20.3349227 L25.7857053,20.3349227 L25.7802014,15.5854056 L23.6720085,20.3349227 L22.3954611,20.3349227 L20.2817643,15.5811986 L20.2817643,20.3349227 L17.3246803,20.3349227 L16.7660302,18.9822816 L13.7388627,18.9822816 L13.1745253,20.3349227 L11.5954446,20.3349227 L14.1989921,14.2706275 L16.3591055,14.2706275 L18.8318428,20.0122643 L18.8318428,14.2706275 L21.2047752,14.2706275 L23.1074876,18.3845221 L24.8553558,14.2706275 L27.2759891,14.2706275 L27.2759891,20.3349227 L27.2761726,20.3349227 Z M33.2165761,20.3349227 L28.3597151,20.3349227 L28.3597151,14.2706275 L33.2165761,14.2706275 L33.2165761,15.5334583 L29.8136729,15.5334583 L29.8136729,16.626546 L33.1349343,16.626546 L33.1349343,17.8696222 L29.8136729,17.8696222 L29.8136729,19.0806887 L33.2165761,19.0806887 L33.2165761,20.3349227 L33.2165761,20.3349227 Z M40.0645796,15.903857 C40.0645796,16.8707347 39.4173161,17.37027 39.0401127,17.5202586 C39.3582405,17.6409811 39.6299517,17.8542576 39.7592943,18.0309514 C39.9645913,18.3325749 40,18.6020056 40,19.1436108 L40,20.3349227 L38.5335666,20.3349227 L38.5280627,19.5701637 C38.5280627,19.2052524 38.5631044,18.6804752 38.2985483,18.3887291 C38.0860962,18.1754527 37.762281,18.1291757 37.2388562,18.1291757 L35.678122,18.1291757 L35.678122,20.3349227 L34.2243477,20.3349227 L34.2243477,14.2706275 L37.5683588,14.2706275 C38.3113909,14.2706275 38.8588495,14.2901992 39.3288861,14.5610932 C39.7888321,14.8319873 40.0645796,15.227445 40.0645796,15.903857 L40.0645796,15.903857 Z M42.3912789,20.3349227 L40.9077833,20.3349227 L40.9077833,14.2706275 L42.3912789,14.2706275 L42.3912789,20.3349227 L42.3912789,20.3349227 Z M59.6017356,20.3349227 L57.541427,20.3349227 L54.7856037,15.7833174 L54.7856037,20.3349227 L51.8246669,20.3349227 L51.2588618,18.9822816 L48.2386658,18.9822816 L47.6897395,20.3349227 L45.9884713,20.3349227 C45.2817653,20.3349227 44.3870079,20.1790809 43.8802784,19.664181 C43.3693292,19.1492811 43.1034889,18.4518341 43.1034889,17.3490521 C43.1034889,16.4496692 43.2623693,15.6274756 43.8872501,14.9777689 C44.3572866,14.4937813 45.093347,14.2706275 46.0952477,14.2706275 L47.5027889,14.2706275 L47.5027889,15.5700409 L46.1247856,15.5700409 C45.5942056,15.5700409 45.2946078,15.6486935 45.0060178,15.9292819 C44.758157,16.1846284 44.5880852,16.6673356 44.5880852,17.302958 C44.5880852,17.9526647 44.7176113,18.4211047 44.9878548,18.727118 C45.2116817,18.9670998 45.618423,19.0398992 46.0011304,19.0398992 L46.6540812,19.0398992 L48.7031985,14.2708104 L50.8816583,14.2708104 L53.3432042,20.0067769 L53.3432042,14.2708104 L55.5568893,14.2708104 L58.1125526,18.4942699 L58.1125526,14.2708104 L59.6017356,14.2708104 L59.6017356,20.3349227 L59.6017356,20.3349227 Z M11.5785658,21.5260517 L14.0626779,21.5260517 L14.6227956,20.1790809 L15.8767768,20.1790809 L16.4354268,21.5260517 L21.3231099,21.5260517 L21.3231099,20.4962519 L21.759389,21.5304416 L24.2967058,21.5304416 L24.7329849,20.4808872 L24.7329849,21.5260517 L36.8798158,21.5260517 L36.8741284,19.3150002 L37.1091467,19.3150002 C37.2737145,19.3206705 37.3217823,19.3358523 37.3217823,19.6067463 L37.3217823,21.5260517 L43.604164,21.5260517 L43.604164,21.0113347 C44.1108935,21.2820458 44.8990579,21.5260517 45.9361838,21.5260517 L48.5791763,21.5260517 L49.144798,20.1790809 L50.3987792,20.1790809 L50.9519253,21.5260517 L56.0450889,21.5260517 L56.0450889,20.2465757 L56.8163745,21.5260517 L60.8977302,21.5260517 L60.8977302,13.0681579 L56.8585714,13.0681579 L56.8585714,14.0670454 L56.2929497,13.0681579 L52.1482986,13.0681579 L52.1482986,14.0670454 L51.6289101,13.0681579 L46.0304847,13.0681579 C45.093347,13.0681579 44.2695905,13.1985748 43.604164,13.5620228 L43.604164,13.0681579 L39.7407644,13.0681579 L39.7407644,13.5620228 C39.3173278,13.1874171 38.7403313,13.0681579 38.0987553,13.0681579 L23.9842654,13.0681579 L23.0372207,15.252687 L22.0646743,13.0681579 L17.6189576,13.0681579 L17.6189576,14.0670454 L17.1305746,13.0681579 L13.3390931,13.0681579 L11.5783824,17.0894986 L11.5783824,21.5260517 L11.5785658,21.5260517 Z" id="AMERICAN" fill="#0072CE"></path>
                </g>
            </g>
        </g>
    </g>
</svg>