<?xml version="1.0" encoding="UTF-8" standalone="no"?>
<svg width="24px" height="21px" viewBox="0 0 24 21" version="1.1" xmlns="http://www.w3.org/2000/svg" xmlns:xlink="http://www.w3.org/1999/xlink">
    <!-- Generator: Sketch 48.1 (47250) - http://www.bohemiancoding.com/sketch -->
    <title>Music Copy</title>
    <desc>Created with Sketch.</desc>
    <defs>
        <linearGradient x1="100%" y1="0%" x2="0%" y2="100%" id="linearGradient-1">
            <stop stop-color="#3F80BE" offset="0%"></stop>
            <stop stop-color="#1988A1" offset="100%"></stop>
        </linearGradient>
    </defs>
    <g id="UI-Style-Guides" stroke="none" stroke-width="1" fill="none" fill-rule="evenodd">
        <g id="Music-Copy" fill="url(#linearGradient-1)" fill-rule="nonzero">
            <g id="icon-devices">
                <path d="M6.93344697,21 L16.2969292,21 C17.2242421,21 17.9803587,20.245935 17.9803587,19.3211382 L17.9803587,1.67886179 C17.9803587,0.754065041 17.2242421,-2.98427949e-13 16.2969292,-2.98427949e-13 L6.93344697,-2.98427949e-13 C6.0061341,-2.98427949e-13 5.25001746,0.754065041 5.25001746,1.67886179 L5.25001746,19.3211382 C5.25001746,20.245935 6.0061341,21 6.93344697,21 Z M16.8105179,16.1009485 L6.41510285,16.1009485 L6.41510285,3.87466125 L16.8105179,3.87466125 L16.8105179,16.1009485 Z M16.2921737,19.8380759 L6.93344697,19.8380759 C6.64811993,19.8380759 6.41510285,19.6056911 6.41510285,19.3211382 L6.41510285,17.2628726 L16.8105179,17.2628726 L16.8105179,19.3211382 C16.8105179,19.6056911 16.5775008,19.8380759 16.2921737,19.8380759 Z M6.93344697,1.16192412 L16.2969292,1.16192412 C16.5822562,1.16192412 16.8152733,1.39430894 16.8152733,1.67886179 L16.8152733,2.71273713 L6.41510285,2.71273713 L6.41510285,1.67886179 C6.41510285,1.39430894 6.64811993,1.16192412 6.93344697,1.16192412 Z M12.7731403,17.9410569 C13.0917555,17.9410569 13.3580607,18.201897 13.3580607,18.5243902 C13.3580607,18.8468835 13.0965109,19.1077236 12.7731403,19.1077236 L10.4524804,19.1077236 C10.1291098,19.1077236 9.86755999,18.8468835 9.86755999,18.5243902 C9.86755999,18.201897 10.1291098,17.9410569 10.4524804,17.9410569 L12.7731403,17.9410569 Z M21.2330869,17.9410569 C21.6896102,17.9410569 22.0605353,17.5711382 22.0605353,17.1253388 L22.0605353,3.88888889 C22.0605353,3.43360434 21.6896102,3.06368564 21.2330869,3.06368564 L19.5591683,3.06368564 C19.2357977,3.06368564 18.9742479,2.80284553 18.9742479,2.4803523 C18.9742479,2.15785908 19.2357977,1.89701897 19.5591683,1.89701897 L21.2330869,1.89701897 C22.331596,1.89701897 23.2256207,2.78861789 23.2256207,3.88414634 L23.2256207,17.1205962 C23.2256207,18.2161247 22.331596,19.1077236 21.2330869,19.1077236 L19.5591683,19.1077236 C19.2357977,19.1077236 18.9742479,18.8468835 18.9742479,18.5243902 C18.9742479,18.201897 19.2357977,17.9410569 19.5591683,17.9410569 L21.2330869,17.9410569 Z M1.9925338,19.102981 C0.894024712,19.102981 0,18.2113821 0,17.1158537 L0,3.87940379 C0,2.78387534 0.894024712,1.89227642 1.9925338,1.89227642 L3.66645241,1.89227642 C3.98982305,1.89227642 4.25137283,2.15311653 4.25137283,2.47560976 C4.25137283,2.79810298 3.98982305,3.05894309 3.66645241,3.05894309 L1.9925338,3.05894309 C1.53601054,3.05894309 1.1650854,3.42886179 1.1650854,3.88414634 L1.1650854,17.1111111 C1.1650854,17.5663957 1.53601054,17.9363144 1.9925338,17.9363144 L3.66645241,17.9363144 C3.98982305,17.9363144 4.25137283,18.1971545 4.25137283,18.5196477 C4.25137283,18.8421409 3.98982305,19.102981 3.66645241,19.102981 L1.9925338,19.102981 Z" id="smartphone"></path>
            </g>
        </g>
    </g>
</svg>