<?xml version="1.0" encoding="UTF-8" standalone="no"?>
<svg width="17px" height="22px" viewBox="0 0 17 22" version="1.1" xmlns="http://www.w3.org/2000/svg" xmlns:xlink="http://www.w3.org/1999/xlink">
    <!-- Generator: Sketch 48.1 (47250) - http://www.bohemiancoding.com/sketch -->
    <title>Lock Copy</title>
    <desc>Created with Sketch.</desc>
    <defs></defs>
    <g id="UI-Style-Guides" stroke="none" stroke-width="1" fill="none" fill-rule="evenodd">
        <g id="Lock-Copy">
            <g id="Icon">
                <path d="M1,21.5 C0.724,21.5 0.5,21.275 0.5,21 L0.5,17.5 L16.5,17.5 L16.5,21 C16.5,21.275 16.276,21.5 16,21.5 L1,21.5 Z" id="Fill" fill-opacity="0.2" fill="#06B4FE"></path>
                <path d="M8.5,11.0001 C8.224,11.0001 8,11.2241 8,11.5001 L8,13.5001 C8,13.7761 8.224,14.0001 8.5,14.0001 C8.776,14.0001 9,13.7761 9,13.5001 L9,11.5001 C9,11.2241 8.776,11.0001 8.5,11.0001 M1,17 L1,9 C1,8.449 1.449,8 2,8 L15,8 C15.551,8 16,8.449 16,9 L16,17 L1,17 Z M1,21 L16,21 L16,18 L1,18 L1,21 Z M3.957,5.5 C3.957,2.995 5.995,0.958 8.5,0.958 C11.005,0.958 13.043,2.995 13.043,5.5 L13.043,7 L3.957,7 L3.957,5.5 Z M15,7 L14,7 L14,5.5 C14,2.463 11.538,0 8.5,0 C5.462,0 3,2.463 3,5.5 L3,7 L2,7 C0.895,7 0,7.896 0,9 L0,21 L0,21 C0,21.552 0.448,22 1,22 L16,22 C16.552,22 17,21.552 17,21 L17,21 L17,9 C17,7.896 16.105,7 15,7 L15,7 Z" id="Outline" fill="#3F80BE"></path>
            </g>
        </g>
    </g>
</svg>