<?xml version="1.0" encoding="UTF-8" standalone="no"?>
<svg width="28px" height="35px" viewBox="0 0 28 35" version="1.1" xmlns="http://www.w3.org/2000/svg" xmlns:xlink="http://www.w3.org/1999/xlink">
    <!-- Generator: sketchtool 47.1 (45422) - http://www.bohemiancoding.com/sketch -->
    <title>8146C499-B0FC-4E03-8280-3DB8E31E6081</title>
    <desc>Created with sketchtool.</desc>
    <defs></defs>
    <g id="Admin" stroke="none" stroke-width="1" fill="none" fill-rule="evenodd">
        <g id="Cliente-Agregar-Edificio-A" transform="translate(-687.000000, -2565.000000)">
            <g id="Datos-de-Tarjeta" transform="translate(135.000000, 2217.000000)">
                <g id="Group-19" transform="translate(341.000000, 330.000000)">
                    <g id="icon-shield-" transform="translate(211.000000, 18.000000)">
                        <path d="M14.0000658,35 C6.51933774,29.6658071 1.68526382,21.4143716 0.725190086,12.3266807 L0,5.46317861 L14.0000658,0 L28,5.46317861 L27.2748099,12.3266807 C26.3148678,21.4143716 21.4807939,29.6658071 14.0000658,35" id="Fill-12" fill="#44C95B"></path>
                        <path d="M13.3237288,32.5938822 C6.83555346,27.5174953 2.62288968,19.9080019 1.76590426,11.7166244 L1.16666667,5.99274309 L13.4167319,1.16666667 L25.6666667,5.99274309 L25.0675595,11.7166244 C24.2105741,19.9080019 19.9979103,27.5174953 13.509735,32.5938822 L13.4167319,32.6666667 L13.3237288,32.5938822 Z" id="Fill-14" fill="#58B560"></path>
                        <path d="M14,35 C21.4806316,29.6658071 26.3148599,21.4143716 27.2748065,12.3266807 L28,5.46317861 L14,0 L14,35 Z" id="Fill-16" fill="#44C95B"></path>
                        <path d="M14,32.6666667 L14.0974324,32.5940118 C20.8946046,27.5175617 25.3078949,19.9079738 26.2056939,11.7166251 L26.8333333,5.99254217 L14,1.16666667 L14,32.6666667 Z" id="Fill-18" fill="#58B560"></path>
                        <polygon id="Fill-36" fill="#FFFFFF" points="19.0659547 10.3333333 12.249916 17.0317367 8.9341796 13.7732252 7 15.6740236 12.249916 20.8333333 21 12.2341317"></polygon>
                    </g>
                </g>
            </g>
        </g>
    </g>
</svg>