<?xml version="1.0" encoding="UTF-8" standalone="no"?>
<svg width="19px" height="24px" viewBox="0 0 19 24" version="1.1" xmlns="http://www.w3.org/2000/svg" xmlns:xlink="http://www.w3.org/1999/xlink">
    <!-- Generator: Sketch 47.1 (45422) - http://www.bohemiancoding.com/sketch -->
    <title>Edificios</title>
    <desc>Created with Sketch.</desc>
    <defs>
        <linearGradient x1="100%" y1="0%" x2="0%" y2="100%" id="linearGradient-1">
            <stop stop-color="#FFFFFF" offset="0%"></stop>
            <stop stop-color="#FFFFFF" offset="100%"></stop>
        </linearGradient>
    </defs>
    <g id="Clientes" stroke="none" stroke-width="1" fill="none" fill-rule="evenodd">
        <g id="Edificios" fill-rule="nonzero" fill="url(#linearGradient-1)">
            <g id="icon">
                <path d="M0,24 L0,9.91304348 C0,8.76052174 0.934434783,7.82608696 2.08695652,7.82608696 L2.08695652,7.82608696 L2.08695652,5.73913043 C2.08695652,5.16313043 2.55443478,4.69565217 3.13043478,4.69565217 L4.17391304,4.69565217 L4.17391304,0.52173913 C4.17391304,0.23373913 4.40713043,0 4.69565217,0 C4.98417391,0 5.2173913,0.23373913 5.2173913,0.52173913 L5.2173913,4.69565217 L6.26086957,4.69565217 C6.83686957,4.69565217 7.30434783,5.16313043 7.30434783,5.73913043 L7.30434783,7.82608696 L7.30434783,7.82608696 L7.30434783,7.82608696 C8.45686957,7.82608696 9.39130435,8.76052174 9.39130435,9.91304348 L9.39130435,14.0869565 L13.0434783,14.0869565 L13.0434783,10.9565217 L15.1304348,10.9565217 L15.1304348,9.39130435 L18.2608696,9.39130435 L18.2608696,10.9565217 L18.7826087,10.9565217 L18.7826087,24 L0,24 Z M6.26086957,6.26086957 C6.26086957,5.97286957 6.02765217,5.73913043 5.73913043,5.73913043 L3.65217391,5.73913043 C3.36365217,5.73913043 3.13043478,5.97286957 3.13043478,6.26086957 L3.13043478,7.82608696 L6.26086957,7.82608696 L6.26086957,6.26086957 Z M8.34782609,9.91304348 C8.34782609,9.33704348 7.88034783,8.86956522 7.30434783,8.86956522 L2.08695652,8.86956522 C1.51095652,8.86956522 1.04347826,9.33704348 1.04347826,9.91304348 L1.04347826,22.9565217 L8.34782609,22.9565217 L8.34782609,9.91304348 Z M13.0434783,15.1304348 L9.39130435,15.1304348 L9.39130435,22.9565217 L13.0434783,22.9565217 L13.0434783,15.1304348 Z M17.7391304,12 L14.0869565,12 L14.0869565,22.9565217 L17.7391304,22.9565217 L17.7391304,12 Z M15.6521739,13.5652174 L16.173913,13.5652174 C16.4624348,13.5652174 16.6956522,13.7984348 16.6956522,14.0869565 L16.6956522,14.6086957 C16.6956522,14.8972174 16.4624348,15.1304348 16.173913,15.1304348 L15.6521739,15.1304348 C15.3636522,15.1304348 15.1304348,14.8972174 15.1304348,14.6086957 L15.1304348,14.0869565 C15.1304348,13.7984348 15.3636522,13.5652174 15.6521739,13.5652174 Z M15.6521739,16.6956522 L16.173913,16.6956522 C16.4624348,16.6956522 16.6956522,16.9288696 16.6956522,17.2173913 L16.6956522,17.7391304 C16.6956522,18.0276522 16.4624348,18.2608696 16.173913,18.2608696 L15.6521739,18.2608696 C15.3636522,18.2608696 15.1304348,18.0276522 15.1304348,17.7391304 L15.1304348,17.2173913 C15.1304348,16.9288696 15.3636522,16.6956522 15.6521739,16.6956522 Z M15.6521739,19.826087 L16.173913,19.826087 C16.4624348,19.826087 16.6956522,20.0593043 16.6956522,20.3478261 L16.6956522,20.8695652 C16.6956522,21.158087 16.4624348,21.3913043 16.173913,21.3913043 L15.6521739,21.3913043 C15.3636522,21.3913043 15.1304348,21.158087 15.1304348,20.8695652 L15.1304348,20.3478261 C15.1304348,20.0593043 15.3636522,19.826087 15.6521739,19.826087 Z M10.9565217,16.6956522 L11.4782609,16.6956522 C11.7667826,16.6956522 12,16.9288696 12,17.2173913 L12,17.7391304 C12,18.0276522 11.7667826,18.2608696 11.4782609,18.2608696 L10.9565217,18.2608696 C10.668,18.2608696 10.4347826,18.0276522 10.4347826,17.7391304 L10.4347826,17.2173913 C10.4347826,16.9288696 10.668,16.6956522 10.9565217,16.6956522 Z M10.9565217,19.826087 L11.4782609,19.826087 C11.7667826,19.826087 12,20.0593043 12,20.3478261 L12,20.8695652 C12,21.158087 11.7667826,21.3913043 11.4782609,21.3913043 L10.9565217,21.3913043 C10.668,21.3913043 10.4347826,21.158087 10.4347826,20.8695652 L10.4347826,20.3478261 C10.4347826,20.0593043 10.668,19.826087 10.9565217,19.826087 Z M6.26086957,21.3913043 L5.73913043,21.3913043 C5.4506087,21.3913043 5.2173913,21.158087 5.2173913,20.8695652 L5.2173913,20.3478261 C5.2173913,20.0598261 5.4506087,19.826087 5.73913043,19.826087 L6.26086957,19.826087 C6.5493913,19.826087 6.7826087,20.0598261 6.7826087,20.3478261 L6.7826087,20.8695652 C6.7826087,21.158087 6.5493913,21.3913043 6.26086957,21.3913043 Z M6.26086957,18.2608696 L5.73913043,18.2608696 C5.4506087,18.2608696 5.2173913,18.0276522 5.2173913,17.7391304 L5.2173913,17.2173913 C5.2173913,16.9293913 5.4506087,16.6956522 5.73913043,16.6956522 L6.26086957,16.6956522 C6.5493913,16.6956522 6.7826087,16.9293913 6.7826087,17.2173913 L6.7826087,17.7391304 C6.7826087,18.0276522 6.5493913,18.2608696 6.26086957,18.2608696 Z M6.26086957,15.1304348 L5.73913043,15.1304348 C5.4506087,15.1304348 5.2173913,14.8972174 5.2173913,14.6086957 L5.2173913,14.0869565 C5.2173913,13.7989565 5.4506087,13.5652174 5.73913043,13.5652174 L6.26086957,13.5652174 C6.5493913,13.5652174 6.7826087,13.7989565 6.7826087,14.0869565 L6.7826087,14.6086957 C6.7826087,14.8972174 6.5493913,15.1304348 6.26086957,15.1304348 Z M6.26086957,12 L5.73913043,12 C5.4506087,12 5.2173913,11.7667826 5.2173913,11.4782609 L5.2173913,10.9565217 C5.2173913,10.6685217 5.4506087,10.4347826 5.73913043,10.4347826 L6.26086957,10.4347826 C6.5493913,10.4347826 6.7826087,10.6685217 6.7826087,10.9565217 L6.7826087,11.4782609 C6.7826087,11.7667826 6.5493913,12 6.26086957,12 Z M3.65217391,21.3913043 L3.13043478,21.3913043 C2.84191304,21.3913043 2.60869565,21.158087 2.60869565,20.8695652 L2.60869565,20.3478261 C2.60869565,20.0593043 2.84191304,19.826087 3.13043478,19.826087 L3.65217391,19.826087 C3.94069565,19.826087 4.17391304,20.0593043 4.17391304,20.3478261 L4.17391304,20.8695652 C4.17391304,21.158087 3.94069565,21.3913043 3.65217391,21.3913043 Z M3.65217391,18.2608696 L3.13043478,18.2608696 C2.84191304,18.2608696 2.60869565,18.0276522 2.60869565,17.7391304 L2.60869565,17.2173913 C2.60869565,16.9288696 2.84191304,16.6956522 3.13043478,16.6956522 L3.65217391,16.6956522 C3.94069565,16.6956522 4.17391304,16.9288696 4.17391304,17.2173913 L4.17391304,17.7391304 C4.17391304,18.0276522 3.94069565,18.2608696 3.65217391,18.2608696 Z M3.65217391,15.1304348 L3.13043478,15.1304348 C2.84191304,15.1304348 2.60869565,14.8972174 2.60869565,14.6086957 L2.60869565,14.0869565 C2.60869565,13.7989565 2.84191304,13.5652174 3.13043478,13.5652174 L3.65217391,13.5652174 C3.94069565,13.5652174 4.17391304,13.7989565 4.17391304,14.0869565 L4.17391304,14.6086957 C4.17391304,14.8972174 3.94069565,15.1304348 3.65217391,15.1304348 Z M3.65217391,12 L3.13043478,12 C2.84191304,12 2.60869565,11.7667826 2.60869565,11.4782609 L2.60869565,10.9565217 C2.60869565,10.6685217 2.84191304,10.4347826 3.13043478,10.4347826 L3.65217391,10.4347826 C3.94069565,10.4347826 4.17391304,10.6685217 4.17391304,10.9565217 L4.17391304,11.4782609 C4.17391304,11.7667826 3.94069565,12 3.65217391,12 Z" id="Shape"></path>
            </g>
        </g>
    </g>
</svg>