<?xml version="1.0" encoding="UTF-8" standalone="no"?>
<svg width="24px" height="16px" viewBox="0 0 24 16" version="1.1" xmlns="http://www.w3.org/2000/svg" xmlns:xlink="http://www.w3.org/1999/xlink">
    <!-- Generator: Sketch 47.1 (45422) - http://www.bohemiancoding.com/sketch -->
    <title>icon-view</title>
    <desc>Created with Sketch.</desc>
    <defs></defs>
    <g id="Admin" stroke="none" stroke-width="1" fill="none" fill-rule="evenodd">
        <g id="Admin-Profile-Settings-Editar" transform="translate(-734.000000, -796.000000)">
            <g id="View" transform="translate(734.000000, 796.000000)">
                <g id="icon-view">
                    <path d="M12.5,12 C10.57,12 9,10.43 9,8.5 C9,6.57 10.57,5 12.5,5 C14.43,5 16,6.57 16,8.5 C16,10.43 14.43,12 12.5,12" id="Fill" fill-opacity="0.2" fill="#06B4FE"></path>
                    <path d="M12,15 C6.85562988,15 2.35507246,9.748 1,8 C2.35507246,6.252 6.85562988,1 12,1 C17.1443701,1 21.6449275,6.252 23,8 C21.6449275,9.748 17.1443701,15 12,15 M12,0 C5.373,0 0,8 0,8 C0,8 5.373,16 12,16 C18.627,16 24,8 24,8 C24,8 18.627,0 12,0 M12,11 C10.346,11 9,9.654 9,8 C9,6.346 10.346,5 12,5 C13.654,5 15,6.346 15,8 C15,9.654 13.654,11 12,11 M12,4 C9.791,4 8,5.791 8,8 C8,10.209 9.791,12 12,12 C14.209,12 16,10.209 16,8 C16,5.791 14.209,4 12,4" id="Outline" fill="#3F80BE"></path>
                </g>
            </g>
        </g>
    </g>
</svg>