<?xml version="1.0" encoding="UTF-8" standalone="no"?>
<svg width="23px" height="27px" viewBox="0 0 23 27" version="1.1" xmlns="http://www.w3.org/2000/svg" xmlns:xlink="http://www.w3.org/1999/xlink">
    <!-- Generator: Sketch 48.1 (47250) - http://www.bohemiancoding.com/sketch -->
    <title>Icon Menu-Visitantes Off</title>
    <desc>Created with Sketch.</desc>
    <defs>
        <linearGradient x1="100%" y1="0%" x2="0%" y2="100%" id="linearGradient-1">
            <stop stop-color="#3F80BE" offset="0%"></stop>
            <stop stop-color="#1988A1" offset="100%"></stop>
        </linearGradient>
    </defs>
    <g id="UI-Style-Guides" stroke="none" stroke-width="1" fill="none" fill-rule="evenodd">
        <g id="Icon-Menu-Visitantes-Off" transform="translate(1.000000, 1.000000)">
            <path d="M12.3828125,19.765625 L12.3828125,1.09375 C12.3828125,0.6640625 12.03125,0.3125 11.6015625,0.3125 L1.1328125,0.3125 C0.703125,0.3125 0.3515625,0.6640625 0.3515625,1.09375 L0.3515625,14.7265625 C0.3515625,15.15625 0.703125,15.5078125 1.1328125,15.5078125 L8.984375,15.5078125 L9.765625,17.7734375 C12.0703125,21.6015625 12.3828125,19.765625 12.3828125,19.765625 Z" id="Shape" stroke="url(#linearGradient-1)" fill="#C3E6F5" fill-rule="nonzero" stroke-linecap="round" stroke-linejoin="round"></path>
            <polyline id="Shape" stroke="url(#linearGradient-1)" fill="#FFFFFF" fill-rule="nonzero" stroke-linecap="round" stroke-linejoin="round" points="4.953125 3 3.6640625 4.2890625 3 3.625"></polyline>
            <polyline id="Shape-Copy" stroke="url(#linearGradient-1)" fill="#FFFFFF" fill-rule="nonzero" stroke-linecap="round" stroke-linejoin="round" points="4.953125 7 3.6640625 8.2890625 3 7.625"></polyline>
            <polyline id="Shape-Copy-2" stroke="url(#linearGradient-1)" fill="#FFFFFF" fill-rule="nonzero" stroke-linecap="round" stroke-linejoin="round" points="4.953125 11 3.6640625 12.2890625 3 11.625"></polyline>
            <path d="M14.609375,14.3359375 C14.0234375,15.1171875 13.203125,15.46875 12.265625,15.46875 C11.328125,15.46875 10.5078125,15.1171875 9.921875,14.3359375 C4.6875,15.0390625 4.140625,18.3203125 4.140625,22.3046875 C4.140625,22.578125 5.3125,23.2421875 6.640625,23.2421875 L6.640625,23.203125 C6.640625,23.3203125 6.640625,23.4765625 6.640625,23.59375 C8.0859375,24.1796875 10.078125,24.6875 12.2265625,24.6875 C14.4140625,24.6875 16.3671875,24.1796875 17.8125,23.59375 C17.8125,23.4765625 17.8125,23.359375 17.8125,23.2421875 L17.8125,23.28125 C19.140625,23.28125 20.3125,22.6171875 20.3125,22.34375 C20.390625,18.3203125 19.8828125,15.0390625 14.609375,14.3359375 Z" id="Shape" stroke="url(#linearGradient-1)" fill="#FFFFFF" fill-rule="nonzero" stroke-linecap="round" stroke-linejoin="round"></path>
            <path d="M15.6640625,8.8671875 C15.6640625,11.1328125 14.0625,13.0859375 12.4609375,13.0859375 C10.859375,13.0859375 9.375,11.09375 9.2578125,8.8671875 C9.140625,6.6015625 10.46875,4.8046875 12.4609375,4.8046875 C14.4140625,4.765625 15.6640625,6.6015625 15.6640625,8.8671875 Z" id="Shape" fill="#FFFFFF" fill-rule="nonzero"></path>
            <path d="M15.6640625,8.8671875 C15.6640625,11.1328125 14.0625,13.0859375 12.4609375,13.0859375 C10.859375,13.0859375 9.375,11.09375 9.2578125,8.8671875 C9.140625,6.6015625 10.46875,4.8046875 12.4609375,4.8046875 C14.4140625,4.765625 15.6640625,6.6015625 15.6640625,8.8671875 Z" id="Shape" stroke="url(#linearGradient-1)" stroke-linecap="round" stroke-linejoin="round"></path>
            <path d="M4.84375,19.21875 C4.84375,19.4921875 5.5078125,20.15625 6.8359375,20.15625" id="Shape" stroke="url(#linearGradient-1)" fill="#FFFFFF" fill-rule="nonzero" stroke-linecap="round" stroke-linejoin="round"></path>
            <path d="M20.546875,22.2265625 C20.546875,22.5 19.375,23.1640625 18.046875,23.1640625" id="Shape" stroke="url(#linearGradient-1)" stroke-width="1.5" fill="#FFFFFF" fill-rule="nonzero" stroke-linecap="round" stroke-linejoin="round"></path>
            <path d="M20.546875,22.2265625 C20.546875,18.28125 20,15 14.765625,14.2578125 C14.1796875,15.0390625 13.359375,15.390625 12.421875,15.390625 C11.484375,15.390625 10.6640625,15.0390625 10.078125,14.2578125 C4.84375,14.9609375 4.296875,18.2421875 4.296875,22.2265625" id="Shape" stroke="url(#linearGradient-1)" fill="#FFFFFF" fill-rule="nonzero" stroke-linecap="round" stroke-linejoin="round"></path>
            <path d="M7.3828125,18.3984375 C6.8359375,19.84375 6.8359375,22.03125 6.8359375,23.515625 C8.28125,24.1015625 10.2734375,24.609375 12.421875,24.609375 C14.609375,24.609375 16.5625,24.1015625 18.0078125,23.515625 C18.0078125,22.1484375 18.0078125,20.1953125 17.6171875,18.828125" id="Shape" stroke="url(#linearGradient-1)" fill="#FFFFFF" fill-rule="nonzero" stroke-linecap="round" stroke-linejoin="round"></path>
        </g>
    </g>
</svg>