<?xml version="1.0" encoding="UTF-8" standalone="no"?>
<svg width="19px" height="22px" viewBox="0 0 19 22" version="1.1" xmlns="http://www.w3.org/2000/svg" xmlns:xlink="http://www.w3.org/1999/xlink">
    <!-- Generator: Sketch 47.1 (45422) - http://www.bohemiancoding.com/sketch -->
    <title>icon-notifications</title>
    <desc>Created with Sketch.</desc>
    <defs>
        <linearGradient x1="100%" y1="0%" x2="0%" y2="100%" id="linearGradient-1">
            <stop stop-color="#3F80BE" offset="0%"></stop>
            <stop stop-color="#1988A1" offset="100%"></stop>
        </linearGradient>
    </defs>
    <g id="Admin" stroke="none" stroke-width="1" fill="none" fill-rule="evenodd">
        <g id="Admin-Profile-Settings" transform="translate(-1157.000000, -39.000000)" fill-rule="nonzero">
            <g id="Group-2-Copy-2" transform="translate(1158.000000, 40.000000)">
                <g id="icon-notifications">
                    <path d="M16.0788608,16.7554012 C16.2894888,17.0910494 16.0071577,17.5 15.5634947,17.5 L0.58650534,17.5 C0.142842281,17.5 -0.139488756,17.0910494 0.0711391608,16.7554012 C0.227989737,16.5046296 0.393803204,16.2268519 0.555135225,15.933642 L15.2408306,15.9567901 L15.5410874,15.8333333 C15.7203452,16.1651235 15.9040845,16.4776235 16.0788608,16.7554012 L16.0788608,16.7554012 Z" id="Shape" fill-opacity="0.2" fill="#06B4FE"></path>
                    <path d="M16.8744035,16.3442041 C16.6884894,16.0093287 16.5133011,15.6701042 16.3488386,15.3247911 C16.0315049,14.6714691 15.7366787,14.008017 15.4648526,13.3355441 C14.319425,10.3895102 14.3006548,5.70777776 14.3006548,5.66124312 C14.3006548,3.27449463 12.7516684,1.13477112 10.4487465,0.338028553 C9.17550287,-0.112531111 7.86650653,-0.112531111 6.5579571,0.337158746 C4.25235379,1.13477112 2.70336734,3.27449463 2.70336734,5.6581988 C2.70292043,5.70473343 2.65554808,10.349934 1.54229786,13.3277159 C1.24986913,14.040786 0.934644901,14.7448019 0.597085416,15.4387358 C0.447675476,15.7445408 0.290312842,16.0466058 0.125149556,16.344639 C-0.0492197348,16.6554492 -0.0408820388,17.0329851 0.147048095,17.3362182 C0.331600056,17.640846 0.668542557,17.8271477 1.03192783,17.8254842 L5.60470029,17.8254842 C6.07529543,19.1184513 7.21670091,20 8.49530744,20 C9.76899797,20 10.9104034,19.1184513 11.3845739,17.8254842 L15.9676252,17.8254842 C16.3340906,17.8254842 16.6652501,17.64239 16.8529519,17.3357833 C17.0406536,17.0326558 17.0495918,16.654725 16.8744035,16.3442041 Z M3.59718525,5.66124312 C3.59718525,3.64155289 4.90752232,1.83148597 6.85649229,1.15695119 C7.41825685,0.963854187 7.96795487,0.867305687 8.5136307,0.867305687 C9.05930654,0.867305687 9.60051329,0.963854187 10.1461891,1.15695119 C12.0960529,1.83148597 13.40639,3.64198779 13.40639,5.66167802 C13.40639,5.85999386 13.4251602,10.54738 14.6309205,13.6491093 C14.8446383,14.1765442 15.0714365,14.6988707 15.311116,15.2156304 L1.69826909,15.1912759 C1.93513084,14.6780901 2.16171368,14.1605554 2.37667689,13.6382367 C3.54757836,10.5073689 3.59539762,5.86042876 3.59718525,5.66124312 L3.59718525,5.66124312 Z M8.49530744,19.1301937 C7.69310586,19.1301937 6.9619628,18.612224 6.56868292,17.8254842 L10.4196974,17.8254842 C10.024183,18.612224 9.29393375,19.1301937 8.49530744,19.1301937 Z M16.0851623,16.8904425 C16.0611692,16.9314476 16.0161079,16.9564576 15.9676252,16.9556779 L1.03192783,16.9556779 C0.983445195,16.9564576 0.938383891,16.9314476 0.914390777,16.8904425 C0.888562864,16.8498954 0.887534613,16.7988633 0.911709323,16.7573621 C1.03103401,16.5416501 1.15527471,16.3046279 1.27906849,16.0602124 L15.6503199,16.0858716 C15.6503199,16.0858716 15.9350009,16.4820684 16.0882906,16.757797 C16.1121527,16.7992663 16.1109543,16.8500822 16.0851623,16.8904425 Z" id="Shape" stroke="url(#linearGradient-1)" stroke-width="0.5" fill="#3F80BE"></path>
                </g>
            </g>
        </g>
    </g>
</svg>