<?xml version="1.0" encoding="UTF-8" standalone="no"?>
<svg width="16px" height="16px" viewBox="0 0 16 16" version="1.1" xmlns="http://www.w3.org/2000/svg" xmlns:xlink="http://www.w3.org/1999/xlink">
    <!-- Generator: Sketch 47.1 (45422) - http://www.bohemiancoding.com/sketch -->
    <title>icon-close</title>
    <desc>Created with Sketch.</desc>
    <defs></defs>
    <g id="UI-Style-Guides" stroke="none" stroke-width="1" fill="none" fill-rule="evenodd">
        <g transform="translate(-1142.000000, -6482.000000)" id="Cancel" stroke="#D72B3F" stroke-width="0.5" fill="#D72B3F">
            <g transform="translate(1110.000000, 6463.000000)">
                <g id="icon-close" transform="translate(33.000000, 20.000000)">
                    <path d="M7.72125,7.00025 L13.85125,0.87025 C14.05025,0.67125 14.05025,0.34825 13.85125,0.14925 C13.65125,-0.04975 13.32925,-0.04975 13.12925,0.14925 L7.00025,6.27925 L0.87025,0.14925 C0.67125,-0.04975 0.34825,-0.04975 0.14925,0.14925 C-0.04975,0.34825 -0.04975,0.67125 0.14925,0.87025 L6.27925,7.00025 L0.14925,13.12925 C-0.04975,13.32925 -0.04975,13.65125 0.14925,13.85125 C0.34825,14.05025 0.67125,14.05025 0.87025,13.85125 L7.00025,7.72125 L13.12925,13.85125 C13.32925,14.05025 13.65125,14.05025 13.85125,13.85125 C14.05025,13.65125 14.05025,13.32925 13.85125,13.12925 L7.72125,7.00025 Z" id="Outline"></path>
                </g>
            </g>
        </g>
    </g>
</svg>