<?xml version="1.0" encoding="UTF-8" standalone="no"?>
<svg width="19px" height="24px" viewBox="0 0 19 24" version="1.1" xmlns="http://www.w3.org/2000/svg" xmlns:xlink="http://www.w3.org/1999/xlink">
    <!-- Generator: Sketch 47.1 (45422) - http://www.bohemiancoding.com/sketch -->
    <title>icon-download</title>
    <desc>Created with Sketch.</desc>
    <defs></defs>
    <g id="Clientes" stroke="none" stroke-width="1" fill="none" fill-rule="evenodd">
        <g id="Clientes-Settings-menu-small" transform="translate(-1161.000000, -319.000000)">
            <g id="Tables" transform="translate(135.000000, 220.000000)">
                <g id="icon-download" transform="translate(1026.000000, 99.000000)">
                    <g id="Download-Icon" transform="translate(5.000000, 5.000000)" fill-rule="nonzero" fill="#3F80BE">
                        <g id="Group" transform="translate(0.647059, 0.470588)">
                            <path d="M3.98541176,9.02541176 L3.98541176,9.02541176 C3.79058824,9.02541176 3.63247059,8.86729412 3.63247059,8.67247059 L3.63317647,0.710823529 C3.63317647,0.516 3.79129412,0.357882353 3.98611765,0.357882353 L3.98611765,0.357882353 C4.18094118,0.357882353 4.33905882,0.516 4.33905882,0.710823529 L4.33835294,8.67247059 C4.33835294,8.86729412 4.18023529,9.02541176 3.98541176,9.02541176 Z" id="Shape"></path>
                            <path d="M3.98541176,9.02541176 C3.89505882,9.02541176 3.80470588,8.99082353 3.73552941,8.92235294 L0.691058824,5.87788235 C0.553411765,5.74023529 0.553411765,5.51647059 0.691058824,5.37882353 C0.828705882,5.24117647 1.05247059,5.24117647 1.19011765,5.37882353 L3.98470588,8.17341176 L6.77929412,5.37882353 C6.91694118,5.24117647 7.14070588,5.24117647 7.27835294,5.37882353 C7.416,5.51647059 7.416,5.74023529 7.27835294,5.87788235 L4.23388235,8.92235294 C4.16611765,8.99082353 4.07576471,9.02541176 3.98541176,9.02541176 Z" id="Shape"></path>
                        </g>
                    </g>
                    <g id="Icon-Copy-2">
                        <path d="M1,23.5 C0.724,23.5 0.5,23.275 0.5,23 L0.5,18.5 L18.5,18.5 L18.5,23 C18.5,23.275 18.276,23.5 18,23.5 L1,23.5 Z" id="Fill" fill-opacity="0.2" fill="#06B4FE"></path>
                        <path d="M1,18 L1,1 L11.586,1 L18,7.414 L18,18 L1,18 Z M1,23 L18,23 L18,19 L1,19 L1,23 Z M12,0 L1,0 C0.448,0 0,0.448 0,1 L0,23 C0,23.552 0.448,24 1,24 L18,24 C18.552,24 19,23.552 19,23 L19,7 L12,0 Z" id="Outline" fill="#3F80BE"></path>
                    </g>
                </g>
            </g>
        </g>
    </g>
</svg>