<svg xmlns="http://www.w3.org/2000/svg" xmlns:xlink="http://www.w3.org/1999/xlink" width="100" height="100" viewBox="0 0 100 100">
    <defs>
        <circle id="b" cx="36.667" cy="36.667" r="36.667"/>
        <filter id="a" width="138.2%" height="138.2%" x="-19.1%" y="-13.6%" filterUnits="objectBoundingBox">
            <feOffset dy="4" in="SourceAlpha" result="shadowOffsetOuter1"/>
            <feGaussianBlur in="shadowOffsetOuter1" result="shadowBlurOuter1" stdDeviation="4"/>
            <feColorMatrix in="shadowBlurOuter1" values="0 0 0 0 0 0 0 0 0 0 0 0 0 0 0 0 0 0 0.2 0"/>
        </filter>
    </defs>
    <g fill="none" fill-rule="evenodd">
        <g>
            <circle cx="50" cy="50" r="50" fill="#D72B3F" opacity=".25"/>
            <g transform="translate(13.417 13.417)">
                <use fill="#000" filter="url(#a)" xlink:href="#b"/>
                <use fill="#D72B3F" xlink:href="#b"/>
            </g>
        </g>
        <g fill="#F7FAFD" transform="translate(35.088 36.842)">
            <ellipse cx="14.665" cy="14.459" rx="4.693" ry="4.581"/>
            <path d="M10.265 0l-2.64 2.863H2.934C1.32 2.863 0 4.152 0 5.726v17.18c0 1.574 1.32 2.863 2.933 2.863h23.463c1.613 0 2.933-1.289 2.933-2.864V5.726c0-1.574-1.32-2.863-2.933-2.863h-4.692L19.064 0h-8.799zm4.4 21.474c-4.106 0-7.333-3.15-7.333-7.158 0-4.009 3.227-7.158 7.333-7.158s7.332 3.15 7.332 7.158c0 4.008-3.226 7.158-7.332 7.158z"/>
        </g>
    </g>
</svg>
