<?xml version="1.0" encoding="UTF-8" standalone="no"?>
<svg width="24px" height="24px" viewBox="0 0 24 24" version="1.1" xmlns="http://www.w3.org/2000/svg" xmlns:xlink="http://www.w3.org/1999/xlink">
    <!-- Generator: Sketch 48.1 (47250) - http://www.bohemiancoding.com/sketch -->
    <title>User Copy</title>
    <desc>Created with Sketch.</desc>
    <defs>
        <linearGradient x1="100%" y1="0%" x2="17.594401%" y2="100%" id="linearGradient-1">
            <stop stop-color="#3F80BE" offset="0%"></stop>
            <stop stop-color="#2A85AE" offset="54.2154948%"></stop>
            <stop stop-color="#1988A1" offset="100%"></stop>
        </linearGradient>
    </defs>
    <g id="UI-Style-Guides" stroke="none" stroke-width="1" fill="none" fill-rule="evenodd">
        <g id="User-Copy">
            <g id="Icon">
                <path d="M12,20.6 C8.134,20.6 5,18.585 5,16.1 C5,14.102 7.027,12.411 9.83,11.823 C8.73,10.968 8,9.489 8,7.8 C8,5.149 9.791,3 12,3 C14.209,3 16,5.149 16,7.8 C16,9.489 15.27,10.968 14.17,11.823 C16.973,12.411 19,14.102 19,16.1 C19,18.585 15.866,20.6 12,20.6 M12,1 C5.925,1 1,5.925 1,12 C1,18.075 5.925,23 12,23 C18.075,23 23,18.075 23,12 C23,5.925 18.075,1 12,1" id="Fill" fill-opacity="0.2" fill="#06B4FE"></path>
                <path d="M12,23 C5.935,23 1,18.065 1,12 C1,5.935 5.935,1 12,1 C18.065,1 23,5.935 23,12 C23,18.065 18.065,23 12,23 M12,0 C5.373,0 0,5.373 0,12 C0,18.627 5.373,24 12,24 C18.627,24 24,18.627 24,12 C24,5.373 18.627,0 12,0 M12,19.6 C8.748,19.6 6,17.997 6,16.1 C6,14.203 8.748,12.6 12,12.6 C15.252,12.6 18,14.203 18,16.1 C18,17.997 15.252,19.6 12,19.6 M9,7.8 C9,5.705 10.346,4 12,4 C13.654,4 15,5.705 15,7.8 C15,9.895 13.654,11.6 12,11.6 C10.346,11.6 9,9.895 9,7.8 M14.17,11.823 C15.269,10.968 16,9.489 16,7.8 C16,5.149 14.209,3 12,3 C9.791,3 8,5.149 8,7.8 C8,9.489 8.731,10.968 9.83,11.823 C7.027,12.411 5,14.102 5,16.1 C5,18.585 8.134,20.6 12,20.6 C15.866,20.6 19,18.585 19,16.1 C19,14.102 16.973,12.411 14.17,11.823" id="Outline" fill="url(#linearGradient-1)"></path>
            </g>
        </g>
    </g>
</svg>