<?xml version="1.0" encoding="UTF-8" standalone="no"?>
<svg width="22px" height="22px" viewBox="0 0 22 22" version="1.1" xmlns="http://www.w3.org/2000/svg" xmlns:xlink="http://www.w3.org/1999/xlink">
    <!-- Generator: Sketch 47.1 (45422) - http://www.bohemiancoding.com/sketch -->
    <title>icon-pagos</title>
    <desc>Created with Sketch.</desc>
    <defs>
        <linearGradient x1="100%" y1="0%" x2="0%" y2="100%" id="linearGradient-1">
            <stop stop-color="#3F80BE" offset="0%"></stop>
            <stop stop-color="#1988A1" offset="100%"></stop>
        </linearGradient>
    </defs>
    <g id="Clientes" stroke="none" stroke-width="1" fill="none" fill-rule="evenodd">
        <g id="icon-pagos" fill-rule="nonzero" fill="url(#linearGradient-1)">
            <path d="M18.6521739,22 L18.6521739,22 L2.39130435,22 L2.39130435,22 C1.07034783,22 0,20.9296522 0,19.6086957 L0,0.47826087 C0,0.21426087 0.213782609,0 0.47826087,0 L0.47826087,0 L16.7391304,0 L16.7391304,0 C16.9371304,0 17.1073913,0.120521739 17.180087,0.292217391 C17.204,0.349130435 17.2173913,0.41226087 17.2173913,0.47826087 L17.2173913,0.47826087 L17.2173913,7.17391304 L20.5652174,7.17391304 C20.8296957,7.17391304 21.0434783,7.38817391 21.0434783,7.65217391 L21.0434783,19.6086957 C21.0434783,20.9296522 19.9731304,22 18.6521739,22 Z M16.2608696,19.6086957 L16.2608696,0.956521739 L0.956521739,0.956521739 L0.956521739,19.6086957 L0.956521739,19.6086957 L0.956521739,19.6086957 C0.956521739,20.4011739 1.59930435,21.0434783 2.39130435,21.0434783 L16.7496522,21.0434783 C16.4473913,20.6426957 16.2608696,20.1496087 16.2608696,19.6086957 Z M20.0869565,8.13043478 L17.2173913,8.13043478 L17.2173913,19.6086957 C17.2173913,20.4011739 17.8596957,21.0434783 18.6521739,21.0434783 C19.4446522,21.0434783 20.0869565,20.4011739 20.0869565,19.6086957 L20.0869565,8.13043478 Z M2.39130435,18.6521739 C2.39130435,18.3881739 2.60508696,18.173913 2.86956522,18.173913 L7.17391304,18.173913 C7.4383913,18.173913 7.65217391,18.3881739 7.65217391,18.6521739 C7.65217391,18.9166522 7.4383913,19.1304348 7.17391304,19.1304348 L2.86956522,19.1304348 C2.60508696,19.1304348 2.39130435,18.9166522 2.39130435,18.6521739 Z M4.62286957,10.8636957 C4.44065217,11.045913 4.14508696,11.045913 3.9623913,10.8636957 C3.78017391,10.6814783 3.78017391,10.3854348 3.9623913,10.2032174 L6.78652174,7.37908696 C6.80182609,7.3566087 6.81186957,7.33078261 6.83195652,7.31069565 C6.92617391,7.21647826 7.05052174,7.17295652 7.17391304,7.17582609 C7.29730435,7.17295652 7.42165217,7.216 7.51586957,7.31069565 C7.53595652,7.33078261 7.54552174,7.3566087 7.56130435,7.37908696 L9.56521739,9.383 L10.6126087,8.3356087 C10.627913,8.31313043 10.6379565,8.28730435 10.6580435,8.26721739 C10.7522609,8.173 10.8766087,8.12947826 11,8.13282609 C11.1233913,8.12947826 11.2477391,8.173 11.3419565,8.26721739 C11.3620435,8.28730435 11.3716087,8.31313043 11.3873913,8.3356087 L13.255,10.2032174 C13.4372174,10.3854348 13.4372174,10.6814783 13.255,10.8636957 C13.0723043,11.045913 12.7767391,11.045913 12.5945217,10.8636957 L11,9.26917391 L10.2256957,10.0434783 L10.3854348,10.2032174 C10.5676522,10.3854348 10.5676522,10.6814783 10.3854348,10.8636957 C10.2032174,11.045913 9.90717391,11.045913 9.72495652,10.8636957 L7.17391304,8.31265217 L4.62286957,10.8636957 Z M10.0434783,13.3913043 L14.3478261,13.3913043 C14.6123043,13.3913043 14.826087,13.6055652 14.826087,13.8695652 C14.826087,14.1340435 14.6123043,14.3478261 14.3478261,14.3478261 L10.0434783,14.3478261 C9.779,14.3478261 9.56521739,14.1340435 9.56521739,13.8695652 C9.56521739,13.6055652 9.779,13.3913043 10.0434783,13.3913043 Z M10.0434783,15.7826087 L14.3478261,15.7826087 C14.6123043,15.7826087 14.826087,15.9968696 14.826087,16.2608696 C14.826087,16.5253478 14.6123043,16.7391304 14.3478261,16.7391304 L10.0434783,16.7391304 C9.779,16.7391304 9.56521739,16.5253478 9.56521739,16.2608696 C9.56521739,15.9968696 9.779,15.7826087 10.0434783,15.7826087 Z M10.0434783,18.173913 L14.3478261,18.173913 C14.6123043,18.173913 14.826087,18.3881739 14.826087,18.6521739 C14.826087,18.9166522 14.6123043,19.1304348 14.3478261,19.1304348 L10.0434783,19.1304348 C9.779,19.1304348 9.56521739,18.9166522 9.56521739,18.6521739 C9.56521739,18.3881739 9.779,18.173913 10.0434783,18.173913 Z M10.5217391,6.93478261 C10.5217391,7.33126087 10.2003478,7.65217391 9.80434783,7.65217391 C9.40834783,7.65217391 9.08695652,7.33126087 9.08695652,6.93478261 C9.08695652,6.53830435 9.40834783,6.2173913 9.80434783,6.2173913 C10.2003478,6.2173913 10.5217391,6.53830435 10.5217391,6.93478261 Z M11.9565217,4.30434783 L5.26086957,4.30434783 C4.9963913,4.30434783 4.7826087,4.09008696 4.7826087,3.82608696 C4.7826087,3.56208696 4.9963913,3.34782609 5.26086957,3.34782609 L11.9565217,3.34782609 C12.221,3.34782609 12.4347826,3.56208696 12.4347826,3.82608696 C12.4347826,4.09008696 12.221,4.30434783 11.9565217,4.30434783 Z M2.86956522,15.7826087 L7.17391304,15.7826087 C7.4383913,15.7826087 7.65217391,15.9968696 7.65217391,16.2608696 C7.65217391,16.5253478 7.4383913,16.7391304 7.17391304,16.7391304 L2.86956522,16.7391304 C2.60508696,16.7391304 2.39130435,16.5253478 2.39130435,16.2608696 C2.39130435,15.9968696 2.60508696,15.7826087 2.86956522,15.7826087 Z M7.65217391,13.8695652 C7.65217391,14.1340435 7.4383913,14.3478261 7.17391304,14.3478261 L2.86956522,14.3478261 C2.60508696,14.3478261 2.39130435,14.1340435 2.39130435,13.8695652 C2.39130435,13.6055652 2.60508696,13.3913043 2.86956522,13.3913043 L7.17391304,13.3913043 C7.4383913,13.3913043 7.65217391,13.6055652 7.65217391,13.8695652 Z" id="Shape"></path>
        </g>
    </g>
</svg>