<?xml version="1.0" encoding="UTF-8" standalone="no"?>
<svg width="20px" height="20px" viewBox="0 0 20 20" version="1.1" xmlns="http://www.w3.org/2000/svg" xmlns:xlink="http://www.w3.org/1999/xlink">
    <!-- Generator: Sketch 47.1 (45422) - http://www.bohemiancoding.com/sketch -->
    <title>icon-search</title>
    <desc>Created with Sketch.</desc>
    <defs></defs>
    <g id="Clientes" stroke="none" stroke-width="1" fill="none" fill-rule="evenodd">
        <g id="Clientes-Settings" transform="translate(-835.000000, -147.000000)">
            <g id="Group" transform="translate(835.000000, 147.000000)">
                <g id="icon-search">
                    <path d="M17.3986667,19.5833333 C17.2878333,19.5833333 17.1828333,19.54 17.1036667,19.4616667 L13.5686667,15.9258333 C13.4061667,15.7633333 13.4061667,15.4991667 13.5686667,15.3366667 L15.3361667,13.5683333 C15.4153333,13.49 15.5195,13.4466667 15.6311667,13.4466667 C15.7428333,13.4466667 15.847,13.49 15.9253333,13.5691667 L19.4611667,17.1041667 C19.5395,17.1833333 19.5836667,17.2875 19.5836667,17.3983333 C19.5836667,17.51 19.5395,17.615 19.4611667,17.6933333 L17.6936667,19.4616667 C17.6145,19.54 17.5103333,19.5833333 17.3986667,19.5833333" id="Fill" fill-opacity="0.2" fill="#06B4FE"></path>
                    <path d="M17.3989167,19.1665833 L13.8630833,15.63075 L15.6305833,13.86325 L15.6314167,13.86325 L15.6314167,13.86325 L19.1664167,17.3990833 L17.3989167,19.1665833 Z M2.66391667,11.5024167 C1.48308333,10.3224167 0.833083333,8.75241667 0.833083333,7.08325 C0.833083333,5.41408333 1.48308333,3.84408333 2.66391667,2.66408333 C3.84475,1.48325 5.41391667,0.83325 7.08308333,0.83325 C8.75308333,0.83325 10.32225,1.48325 11.5030833,2.66408333 C12.6830833,3.84408333 13.3330833,5.41408333 13.3330833,7.08325 C13.3330833,8.75241667 12.6830833,10.3224167 11.5030833,11.5024167 C10.32225,12.68325 8.75308333,13.33325 7.08308333,13.33325 C5.41391667,13.33325 3.84475,12.68325 2.66391667,11.5024167 L2.66391667,11.5024167 Z M19.7555833,16.8099167 L16.2205833,13.2740833 C16.0580833,13.1115833 15.84475,13.0299167 15.6314167,13.0299167 C15.4180833,13.0299167 15.20475,13.1115833 15.04225,13.2740833 L14.45225,13.86325 L12.3714167,11.7824167 C14.8464167,9.00075 14.7589167,4.74158333 12.09225,2.07491667 C10.7089167,0.691583333 8.89641667,-8.33333333e-05 7.08308333,-8.33333333e-05 C5.27058333,-8.33333333e-05 3.45808333,0.691583333 2.07475,2.07491667 C-0.691916667,4.84075 -0.691916667,9.32575 2.07475,12.0915833 C3.45808333,13.4749167 5.27058333,14.1665833 7.08308333,14.1665833 C8.76558333,14.1665833 10.4439167,13.56325 11.78225,12.3715833 L13.8630833,14.4524167 L13.2739167,15.0415833 C12.9489167,15.3674167 12.9489167,15.8949167 13.2739167,16.22075 L16.80975,19.75575 C16.97225,19.91825 17.1855833,19.9999167 17.3989167,19.9999167 C17.61225,19.9999167 17.8255833,19.91825 17.9880833,19.75575 L19.7555833,17.98825 C20.0814167,17.6624167 20.0814167,17.1349167 19.7555833,16.8099167 L19.7555833,16.8099167 Z" id="Outline" fill="#3F80BE"></path>
                </g>
            </g>
        </g>
    </g>
</svg>