<?xml version="1.0" encoding="UTF-8" standalone="no"?>
<svg width="50px" height="50px" viewBox="0 0 50 50" version="1.1" xmlns="http://www.w3.org/2000/svg" xmlns:xlink="http://www.w3.org/1999/xlink">
    <!-- Generator: Sketch 47 (45396) - http://www.bohemiancoding.com/sketch -->
    <title>icon</title>
    <desc>Created with Sketch.</desc>
    <defs></defs>
    <g id="Login---Sign-Up" stroke="none" stroke-width="1" fill="none" fill-rule="evenodd">
        <g id="Login-Mobile" transform="translate(-135.000000, -27.000000)">
            <g id="icon" transform="translate(135.000000, 27.000000)">
                <g id="Icon-Shape" fill="#204D78">
                    <path d="M17.4458794,0.18115942 L32.4720328,0.18115942 C37.4552423,0.18115942 39.9462266,0.18115942 42.6287296,1.02913647 C45.5573528,2.09510568 47.8638504,4.40160326 48.9298196,7.33022645 C49.7777966,10.0123158 49.7777966,12.5041274 49.7777966,17.4869233 L49.7777966,32.5130767 C49.7777966,37.4962862 49.7777966,39.9872705 48.9298196,42.6697736 C47.8638504,45.5983967 45.5573528,47.9048943 42.6287296,48.9704499 C39.9462266,49.8188406 37.4552423,49.8188406 32.4720328,49.8188406 L17.4458794,49.8188406 C12.4626698,49.8188406 9.97127189,49.8188406 7.28918252,48.9704499 C4.36055933,47.9048943 2.05406175,45.5983967 0.988092542,42.6697736 C0.140115489,39.9872705 0.140115489,37.4962862 0.140115489,32.5130767 L0.140115489,17.4869233 C0.140115489,12.5041274 0.140115489,10.0123158 0.988092542,7.33022645 C2.05406175,4.40160326 4.36055933,2.09510568 7.28918252,1.02913647 C9.97127189,0.18115942 12.4626698,0.18115942 17.4458794,0.18115942 L17.4458794,0.18115942" id="White-Icon"></path>
                </g>
                <g id="Group-15" transform="translate(10.169492, 11.683616)">
                    <path d="M23.0699212,13.9832175 L23.0699212,27.2289099 L26.1521491,27.2289099 L26.1521491,13.9832175 C26.1521491,12.3195426 25.9009596,10.7438446 25.4386254,9.29192107 L22.9467534,12.2801046 C23.0195619,12.8285956 23.0699212,13.3910415 23.0699212,13.9832175" id="Fill-15" fill="#FFFFFF"></path>
                    <path d="M13.2287558,0.198863392 C5.86053228,0.198863392 0.30463448,6.12487124 0.30463448,13.9833389 C0.30463448,21.8405931 5.86053228,27.7666009 13.2287558,27.7666009 C17.4704596,27.7666009 20.0964207,25.5920527 21.5082995,24.4246893 L21.6963882,24.2687576 L21.6963882,20.3049398 L20.7984163,21.2472035 C18.4291053,23.731188 16.1653666,24.7899454 13.2287558,24.7899454 C8.5271448,24.7899454 3.4948617,20.4475231 3.4948617,13.9833389 C3.4948617,7.51794117 8.5271448,3.17491218 13.2287558,3.17491218 C16.1762879,3.17491218 19.1802466,4.68326228 21.0817628,7.38809928 L23.1307163,4.93384498 C20.7978096,2.0026948 17.289045,0.198863392 13.2287558,0.198863392" id="Fill-16" fill="#FFFFFF"></path>
                    <path d="M28.7374686,0.14391343 C28.3673586,0.14391343 28.0142372,0.304092203 27.7685084,0.581978103 L23.5350324,5.8720676 L21.4351129,8.38699567 L14.6044591,16.570068 L8.68815905,10.653768 C8.47094692,10.4353424 8.15362307,10.3103544 7.81809708,10.3103544 C7.48317783,10.3103544 7.16524723,10.4353424 6.94682163,10.653768 C6.46689205,11.1343043 6.46689205,11.9163893 6.94682163,12.3969256 L13.824801,19.274905 C14.0644625,19.5139597 14.3569101,19.6365208 14.6960765,19.6365208 C15.1110851,19.6001165 15.4362966,19.4356905 15.6711041,19.1705461 L22.4641402,11.026305 L24.79462,8.23288428 L29.6730583,2.16313674 C30.0941343,1.6516568 30.0219325,0.863504431 29.5086323,0.409057838 C29.3059819,0.243418425 29.0268825,0.14391343 28.7374686,0.14391343 Z" id="Fill-17" fill="#06B4FE"></path>
                </g>
            </g>
        </g>
    </g>
</svg>