<?xml version="1.0" encoding="UTF-8" standalone="no"?>
<svg width="167px" height="48px" viewBox="0 0 167 48" version="1.1" xmlns="http://www.w3.org/2000/svg" xmlns:xlink="http://www.w3.org/1999/xlink">
    <!-- Generator: Sketch 46.2 (44496) - http://www.bohemiancoding.com/sketch -->
    <title>Page 1 Copy</title>
    <desc>Created with Sketch.</desc>
    <defs>
        <polygon id="path-1" points="25.9420745 39.5562692 0.0162871443 39.5562692 0.0162871443 0.166379754 25.9420745 0.166379754 25.9420745 39.5562692"></polygon>
        <polygon id="path-3" points="0 47.9080161 169.479748 47.9080161 169.479748 0.225063525 0 0.225063525"></polygon>
    </defs>
    <g id="UI-Style-Guides" stroke="none" stroke-width="1" fill="none" fill-rule="evenodd">
        <g id="Login" transform="translate(-139.000000, -86.000000)">
            <g id="Page-1-Copy" transform="translate(139.000000, 86.000000)">
                <path d="M3.09214399,12.7857612 C4.61353896,10.7659573 7.23155543,9.05712646 10.2165324,9.05712646 L13.1083999,9.05712646 L13.1083999,12.0421034 L10.4325704,12.0421034 C6.90232555,12.0421034 3.09214399,15.7536986 3.09214399,21.750429 L3.09214399,35.6292024 L6.08557988e-05,35.6292024 L6.08557988e-05,9.05712646 L3.09214399,9.05712646 L3.09214399,12.7857612 Z" id="Fill-1" fill="#FFFFFF"></path>
                <path d="M38.2360635,22.8721839 C38.1313915,28.5585497 33.3408231,33.1835905 27.5576965,33.1835905 C21.7289281,33.1835905 16.9864357,28.393022 16.9864357,22.5046149 C16.9864357,16.3362711 21.6297331,11.5031036 27.5576965,11.5031036 C30.4763406,11.5031036 33.1649498,12.6800547 35.0222688,14.750369 L18.6240652,25.8261244 L20.5452828,28.387545 L39.6302699,15.4392566 L39.36433,15.0126575 C36.8309031,10.946273 32.417032,8.51812665 27.5576965,8.51812665 C19.7066899,8.51812665 13.7866378,14.4850377 13.7866378,22.3969001 C13.7866378,30.2472982 19.8923001,36.1685674 27.987947,36.1685674 C35.2291785,36.1685674 41.2618138,30.2132189 41.4358614,22.894092 L41.4486411,22.3591695 L38.2458004,22.3591695 L38.2360635,22.8721839 Z" id="Fill-3" fill="#FFFFFF"></path>
                <g id="Group-7" transform="translate(43.498773, 8.351747)">
                    <mask id="mask-2" fill="white">
                        <use xlink:href="#path-1"></use>
                    </mask>
                    <g id="Clip-6"></g>
                    <path d="M12.9785723,0.166379754 C5.58885264,0.166379754 0.0162871443,6.11016562 0.0162871443,13.9922087 C0.0162871443,21.8730346 5.58885264,27.8168205 12.9785723,27.8168205 C17.2336097,27.8168205 19.8674487,25.6357487 21.282346,24.4648831 L21.4722161,24.3084837 L21.4722161,20.3327744 L20.5709417,21.2778649 C18.1957399,23.7686928 15.9252101,24.831235 12.9785723,24.831235 C8.26407355,24.831235 3.21608504,20.4757855 3.21608504,13.9922087 C3.21608504,7.50741476 8.26407355,3.15135668 12.9785723,3.15135668 C17.8306051,3.15135668 22.8493828,7.20617856 22.8493828,13.9922087 L22.8493828,25.0314506 C22.8493828,33.0132971 19.6063773,36.5709271 12.3328923,36.5709271 C10.4001121,36.5709271 8.11315117,36.1132915 6.05987652,35.3142549 L5.54868781,35.115865 L4.56708378,38.0582429 L5.04541036,38.2322905 C7.46199413,39.1110482 10.0039408,39.5565126 12.6018749,39.5565126 C20.7060416,39.5565126 25.9420745,34.4044607 25.9420745,26.4317425 L25.9420745,13.9922087 C25.9420745,6.11016562 20.3689005,0.166379754 12.9785723,0.166379754" id="Fill-5" fill="#FFFFFF" mask="url(#mask-2)"></path>
                </g>
                <path d="M75.9892971,2.36384057 C75.9892971,3.56269981 76.9283021,4.50170478 78.1277699,4.50170478 C79.3266291,4.50170478 80.2662427,3.56269981 80.2662427,2.36384057 C80.2662427,1.16437278 79.3266291,0.225367804 78.1277699,0.225367804 C76.9283021,0.225367804 75.9892971,1.16437278 75.9892971,2.36384057 Z" id="Fill-8" fill="#FFFFFF"></path>
                <mask id="mask-4" fill="white">
                    <use xlink:href="#path-3"></use>
                </mask>
                <g id="Clip-11"></g>
                <polygon id="Fill-10" fill="#FFFFFF" mask="url(#mask-4)" points="76.5815457 35.6291416 79.6736289 35.6291416 79.6736289 9.0570656 76.5815457 9.0570656"></polygon>
                <path d="M88.1847383,32.4694477 C88.2023865,32.3081798 88.3082756,32.1706457 88.580301,31.8481099 C88.6551537,31.7586519 88.7360919,31.6624998 88.815813,31.5626963 L102.446903,15.0768604 C103.572736,13.6680486 103.799119,12.8154589 103.799119,11.8953192 C103.799119,10.1177213 102.757876,9.05700475 101.014966,9.05700475 L85.8436158,9.05700475 L85.8436158,12.1490879 L99.9372102,12.1490879 C100.178199,12.1490879 100.318776,12.1898613 100.381458,12.2184635 C100.363809,12.3779057 100.25792,12.5160483 99.9865034,12.8379755 C99.9104336,12.9280421 99.8294954,13.0241943 99.7497743,13.1239978 L86.1199011,29.6098337 C84.9934602,31.0180369 84.7670767,31.8712352 84.7670767,32.7907663 C84.7670767,34.5683642 85.8077108,35.6290807 87.551838,35.6290807 L104.446016,35.6290807 L104.446016,32.5369976 L88.6283771,32.5369976 C88.3873881,32.5369976 88.2468112,32.4980499 88.1847383,32.4694477" id="Fill-12" fill="#FFFFFF" mask="url(#mask-4)"></path>
                <path d="M110.855045,2.05639708 L107.762353,2.05639708 L107.762353,27.7825775 C107.762353,32.6966832 110.736376,35.6293242 115.716815,35.6293242 L119.901259,35.6293242 L119.901259,32.6455643 L115.285955,32.6455643 C112.510931,32.6455643 110.855045,30.9069142 110.855045,27.9986155 L110.855045,12.0422251 L119.901259,12.0422251 L119.901259,9.05724817 L110.855045,9.05724817 L110.855045,2.05639708 Z" id="Fill-13" fill="#FFFFFF" mask="url(#mask-4)"></path>
                <path d="M125.825876,12.7857612 L125.825876,9.05712646 L122.733792,9.05712646 L122.733792,35.6292024 L125.825876,35.6292024 L125.825876,21.750429 C125.825876,15.7536986 129.636057,12.0421034 133.166302,12.0421034 L135.84274,12.0421034 L135.84274,9.05712646 L132.950872,9.05712646 C129.965896,9.05712646 127.347271,10.7659573 125.825876,12.7857612" id="Fill-14" fill="#FFFFFF" mask="url(#mask-4)"></path>
                <g id="Group-15" mask="url(#mask-4)">
                    <g transform="translate(136.000000, 7.650000)">
                        <path d="M23.1391309,14.6938339 L23.1391309,27.9792633 L26.2306055,27.9792633 L26.2306055,14.6938339 C26.2306055,13.0251679 25.9786625,11.4447428 25.5149413,9.9884635 L23.0155937,12.9856116 C23.0886206,13.535748 23.1391309,14.0998813 23.1391309,14.6938339" id="Fill-15" fill="#FFFFFF"></path>
                        <path d="M13.2684421,0.868126648 C5.87811388,0.868126648 0.305548383,6.81191252 0.305548383,14.6939556 C0.305548383,22.5747815 5.87811388,28.5185674 13.2684421,28.5185674 C17.522871,28.5185674 20.1567099,26.3374956 21.5728244,25.16663 L21.7614774,25.0102306 L21.7614774,21.0345212 L20.8608115,21.9796118 C18.4843926,24.4710482 16.2138627,25.5329819 13.2684421,25.5329819 C8.55272623,25.5329819 3.50534628,21.1775324 3.50534628,14.6939556 C3.50534628,8.20916166 8.55272623,3.85310358 13.2684421,3.85310358 C16.2248168,3.85310358 19.2377874,5.36597874 21.1450081,8.07893025 L23.2001084,5.61731319 C20.860203,2.67736955 17.3409121,0.868126648 13.2684421,0.868126648" id="Fill-16" fill="#FFFFFF"></path>
                        <path d="M28.823681,0.813011837 C28.4524607,0.813011837 28.0982799,0.973671146 27.8518139,1.2523907 L23.6056375,6.55835047 L21.4994183,9.08082333 L14.6482725,17.2884449 L8.71422352,11.354396 C8.49635976,11.1353151 8.17808394,11.0099521 7.84155137,11.0099521 C7.50562736,11.0099521 7.18674297,11.1353151 6.9676621,11.354396 C6.48629273,11.8363739 6.48629273,12.6208051 6.9676621,13.1027831 L13.8662754,20.0013964 C14.1066559,20.2411683 14.3999808,20.364097 14.7401647,20.364097 C15.1564184,20.3275835 15.4826055,20.1626643 15.7181174,19.8967244 L22.5315326,11.7280506 L24.8690039,8.9262496 L29.7620774,2.83829282 C30.1844167,2.32527844 30.1119983,1.53476161 29.5971582,1.07895168 C29.3938999,0.912815347 29.1139632,0.813011837 28.823681,0.813011837 Z" id="Fill-17" fill="#06B4FE"></path>
                    </g>
                </g>
            </g>
        </g>
    </g>
</svg>