<?xml version="1.0" encoding="UTF-8" standalone="no"?>
<svg width="230px" height="66px" viewBox="0 0 230 66" version="1.1" xmlns="http://www.w3.org/2000/svg" xmlns:xlink="http://www.w3.org/1999/xlink">
    <!-- Generator: Sketch 47 (45396) - http://www.bohemiancoding.com/sketch -->
    <title>logo header</title>
    <desc>Created with Sketch.</desc>
    <defs></defs>
    <g id="Login---Sign-Up" stroke="none" stroke-width="1" fill="none" fill-rule="evenodd">
        <g id="Login-Tablet-Horizontal" transform="translate(-397.000000, -67.000000)">
            <g id="logo-header" transform="translate(397.000000, 67.000000)">
                <g>
                    <path d="M4.26886626,17.5578193 C6.36923146,14.7841594 9.9835399,12.4375379 14.1044564,12.4375379 L18.0968306,12.4375379 L18.0968306,16.5366044 L14.4027083,16.5366044 C9.52902087,16.5366044 4.26886626,21.6334864 4.26886626,29.8683899 L4.26886626,48.9271688 L8.40146082e-05,48.9271688 L8.40146082e-05,12.4375379 L4.26886626,12.4375379 L4.26886626,17.5578193 Z" id="Fill-1" fill="#3F80BE"></path>
                    <path d="M52.7868824,31.4088199 C52.6423773,39.2175207 46.0287473,45.5687756 38.0448391,45.5687756 C29.9979199,45.5687756 23.4506615,38.9902126 23.4506615,30.9040622 C23.4506615,22.4334938 29.8609761,15.7964325 38.0448391,15.7964325 C42.0741797,15.7964325 45.7859451,17.4126597 48.3500709,20.255682 L25.7114946,35.4652661 L28.3638358,38.9826914 L54.7116571,21.2016847 L54.3445132,20.615865 C50.8469851,15.0317748 44.7534056,11.697366 38.0448391,11.697366 C27.2061145,11.697366 19.0331734,19.8913205 19.0331734,30.7561449 C19.0331734,41.5365644 27.4623591,49.6678421 38.6388224,49.6678421 C48.6357206,49.6678421 56.9640887,41.4897657 57.2043705,31.4389048 L57.2220136,30.704332 L52.8003247,30.704332 L52.7868824,31.4088199 Z" id="Fill-3" fill="#3F80BE"></path>
                    <path d="M77.9699251,11.697366 C67.7680313,11.697366 60.0748136,19.8595642 60.0748136,30.6834397 C60.0748136,41.5056438 67.7680313,49.6678421 77.9699251,49.6678421 C83.8442265,49.6678421 87.4803788,46.672724 89.4337184,45.0648536 L89.695844,44.8500809 L89.695844,39.3905088 L88.4515876,40.6883376 C85.1724975,44.1088226 82.0379125,45.5679399 77.9699251,45.5679399 C71.4613134,45.5679399 64.4923017,39.5868963 64.4923017,30.6834397 C64.4923017,21.7783118 71.4613134,15.7964325 77.9699251,15.7964325 C84.6684098,15.7964325 91.5970946,21.3646445 91.5970946,30.6834397 L91.5970946,45.8428824 C91.5970946,56.8038112 87.1199561,61.6892634 77.0785301,61.6892634 C74.4102262,61.6892634 71.2529572,61.0608234 68.4183043,59.9635606 L67.7125816,59.6911252 L66.357426,63.7316933 L67.0177808,63.970701 C70.3540009,65.1774394 73.8632911,65.7891656 77.4498747,65.7891656 C88.6381001,65.7891656 95.866717,58.7142019 95.866717,47.7658084 L95.866717,30.6834397 C95.866717,19.8595642 88.1726592,11.697366 77.9699251,11.697366" id="Fill-5" fill="#3F80BE"></path>
                    <path d="M104.907193,3.24610204 C104.907193,4.89241417 106.203538,6.18188605 107.859466,6.18188605 C109.514554,6.18188605 110.81174,4.89241417 110.81174,3.24610204 C110.81174,1.59895422 109.514554,0.30948233 107.859466,0.30948233 C106.203538,0.30948233 104.907193,1.59895422 104.907193,3.24610204 Z" id="Fill-8" fill="#3F80BE"></path>
                    <polygon id="Fill-10" fill="#3F80BE" points="105.724823 48.9270852 109.993605 48.9270852 109.993605 12.4374543 105.724823 12.4374543"></polygon>
                    <path d="M121.743636,44.5880917 C121.768001,44.3666334 121.914186,44.1777672 122.289731,43.7348507 C122.393069,43.6120041 122.504809,43.4799648 122.614868,43.3429114 L141.4333,20.7040304 C142.98757,18.7694047 143.300105,17.598601 143.300105,16.3350356 C143.300105,13.8939809 141.862615,12.4373707 139.456436,12.4373707 L118.511594,12.4373707 L118.511594,16.6835189 L137.968537,16.6835189 C138.301235,16.6835189 138.495309,16.7395102 138.581844,16.7787877 C138.55748,16.9977389 138.411294,17.1874409 138.036589,17.6295216 C137.931571,17.753204 137.819832,17.8852432 137.709772,18.0222966 L118.893021,40.6611776 C117.33791,42.5949676 117.025376,43.766607 117.025376,45.0293368 C117.025376,47.4703914 118.462026,48.9270016 120.869884,48.9270016 L144.19318,48.9270016 L144.19318,44.6808534 L122.356103,44.6808534 C122.023405,44.6808534 121.829331,44.6273692 121.743636,44.5880917" id="Fill-12" fill="#3F80BE"></path>
                    <path d="M153.041178,2.82391072 L148.771556,2.82391072 L148.771556,38.1519305 C148.771556,44.9001389 152.87735,48.9273359 159.753105,48.9273359 L165.52995,48.9273359 L165.52995,44.8299408 L159.158282,44.8299408 C155.327216,44.8299408 153.041178,42.4423703 153.041178,38.448601 L153.041178,16.5367715 L165.52995,16.5367715 L165.52995,12.437705 L153.041178,12.437705 L153.041178,2.82391072 Z" id="Fill-13" fill="#3F80BE"></path>
                    <path d="M173.709192,17.5578193 L173.709192,12.4375379 L169.44041,12.4375379 L169.44041,48.9271688 L173.709192,48.9271688 L173.709192,29.8683899 C173.709192,21.6334864 178.969347,16.5366044 183.843034,16.5366044 L187.537996,16.5366044 L187.537996,12.4375379 L183.545622,12.4375379 C179.424706,12.4375379 175.809557,14.7841594 173.709192,17.5578193" id="Fill-14" fill="#3F80BE"></path>
                    <g id="Group-15" transform="translate(187.755102, 10.505226)">
                        <path d="M31.9447786,20.1780461 L31.9447786,38.4220258 L36.2127207,38.4220258 L36.2127207,20.1780461 C36.2127207,17.8865802 35.8649002,15.7162895 35.2247089,13.7164799 L31.7742289,17.8322602 C31.8750465,18.5877253 31.9447786,19.3624112 31.9447786,20.1780461" id="Fill-15" fill="#3F80BE"></path>
                        <path d="M18.3177772,1.19213948 C8.11504317,1.19213948 0.421825499,9.35433774 0.421825499,20.1782132 C0.421825499,31.0004173 8.11504317,39.1626156 18.3177772,39.1626156 C24.1912384,39.1626156 27.8273907,36.1674975 29.7824106,34.5596272 L30.0428559,34.3448545 L30.0428559,28.8852823 L28.7994397,30.1831111 C25.5186692,33.6044318 22.3840842,35.0627134 18.3177772,35.0627134 C11.8074852,35.0627134 4.8393136,29.0816698 4.8393136,20.1782132 C4.8393136,11.2730853 11.8074852,5.29120598 18.3177772,5.29120598 C22.3992068,5.29120598 26.5587701,7.36873489 29.1917879,11.0942473 L32.0289612,7.71387545 C28.7985996,3.67665013 23.9400348,1.19213948 18.3177772,1.19213948" id="Fill-16" fill="#3F80BE"></path>
                        <path d="M39.7925969,1.11645405 C39.2801077,1.11645405 38.7911427,1.33707659 38.4508836,1.71982327 L32.5888153,9.00613817 L29.6810697,12.4700792 L20.2227051,23.7410496 L12.0304406,15.5922224 C11.7296683,15.2913735 11.2902719,15.119221 10.8256712,15.119221 C10.3619105,15.119221 9.92167397,15.2913735 9.61922138,15.5922224 C8.95466583,16.25409 8.95466583,17.3312963 9.61922138,17.9931639 L19.1431174,27.466562 C19.4749751,27.7958244 19.8799255,27.9646341 20.3495671,27.9646341 C20.9242271,27.9144926 21.3745454,27.6880202 21.6996819,27.3228231 L31.1059574,16.1053369 L34.3329585,12.2578135 L41.0881021,3.89763515 C41.6711635,3.19314727 41.5711861,2.10758409 40.8604225,1.48165121 C40.5798137,1.25350745 40.1933465,1.11645405 39.7925969,1.11645405 Z" id="Fill-17" fill="#686C67"></path>
                    </g>
                </g>
            </g>
        </g>
    </g>
</svg>